<svg width="28" height="22" viewBox="0 0 28 22" fill="none" xmlns="http://www.w3.org/2000/svg">
<path d="M2.92188 0C2.14695 0 1.40376 0.307839 0.855797 0.855797C0.30784 1.40375 0 2.14695 0 2.92188V19.0781C0 19.8531 0.30784 20.5962 0.855797 21.1442C1.40376 21.6922 2.14695 22 2.92188 22H24.5781C25.3531 22 26.0962 21.6922 26.6442 21.1442C27.1922 20.5962 27.5 19.8531 27.5 19.0781V2.92188C27.5 2.14695 27.1922 1.40375 26.6442 0.855797C26.0962 0.307839 25.3531 0 24.5781 0H2.92188ZM10.3125 8.25C10.3125 8.79701 10.0952 9.32161 9.70841 9.70841C9.32161 10.0952 8.79701 10.3125 8.25 10.3125C7.70299 10.3125 7.17839 10.0952 6.79159 9.70841C6.4048 9.32161 6.1875 8.79701 6.1875 8.25C6.1875 7.70299 6.4048 7.17839 6.79159 6.79159C7.17839 6.4048 7.70299 6.1875 8.25 6.1875C8.79701 6.1875 9.32161 6.4048 9.70841 6.79159C10.0952 7.17839 10.3125 7.70299 10.3125 8.25ZM4.8125 12.7188C4.8125 12.4452 4.92115 12.1829 5.11455 11.9895C5.30794 11.7962 5.57025 11.6875 5.84375 11.6875H10.6562C10.9298 11.6875 11.1921 11.7962 11.3855 11.9895C11.5788 12.1829 11.6875 12.4452 11.6875 12.7188V13.0625C11.6875 13.0625 11.6875 15.8125 8.25 15.8125C4.8125 15.8125 4.8125 13.0625 4.8125 13.0625V12.7188ZM14.4375 8.42188C14.4375 7.9475 14.8225 7.5625 15.2969 7.5625H21.8281C21.941 7.5625 22.0527 7.58473 22.157 7.62792C22.2613 7.6711 22.356 7.7344 22.4358 7.8142C22.5156 7.894 22.5789 7.98874 22.6221 8.09301C22.6653 8.19727 22.6875 8.30902 22.6875 8.42188C22.6875 8.53473 22.6653 8.64648 22.6221 8.75074C22.5789 8.85501 22.5156 8.94975 22.4358 9.02955C22.356 9.10935 22.2613 9.17265 22.157 9.21583C22.0527 9.25902 21.941 9.28125 21.8281 9.28125H15.2969C14.8225 9.28125 14.4375 8.89625 14.4375 8.42188ZM15.2969 12.375H21.8281C22.056 12.375 22.2746 12.4655 22.4358 12.6267C22.597 12.7879 22.6875 13.0065 22.6875 13.2344C22.6875 13.4623 22.597 13.6809 22.4358 13.842C22.2746 14.0032 22.056 14.0938 21.8281 14.0938H15.2969C15.069 14.0938 14.8504 14.0032 14.6892 13.842C14.528 13.6809 14.4375 13.4623 14.4375 13.2344C14.4375 13.0065 14.528 12.7879 14.6892 12.6267C14.8504 12.4655 15.069 12.375 15.2969 12.375Z" fill="url(#paint0_linear_5845_992)"/>
<defs>
<linearGradient id="paint0_linear_5845_992" x1="0.366667" y1="0.439999" x2="21.5755" y2="26.7719" gradientUnits="userSpaceOnUse">
<stop stop-color="#FF00CC"/>
<stop offset="0.857292" stop-color="#333399"/>
</linearGradient>
</defs>
</svg>
