<svg width="21" height="24" viewBox="0 0 21 24" fill="none" xmlns="http://www.w3.org/2000/svg">
<g clip-path="url(#clip0_585_11966)">
<path d="M6.53 8.09798L6.67 8.08598C6.72069 8.08038 6.76917 8.06216 6.811 8.03298L6.81 8.03398C6.944 8.49598 7.108 8.98198 7.313 9.49098C7.576 10.157 7.835 10.704 8.125 11.232L8.085 11.152C8.061 11.516 8.032 11.89 7.994 12.252C7.97735 12.4655 7.93401 12.6762 7.865 12.879L7.87 12.861C7.858 12.866 7.841 14.941 7.841 14.941C7.84137 15.5848 8.05836 16.2098 8.45706 16.7154C8.85576 17.2209 9.41297 17.5776 10.039 17.728L10.059 17.732C10.0868 17.6598 10.1358 17.5977 10.1995 17.5538C10.2632 17.5099 10.3386 17.4863 10.416 17.486H10.99C11.0666 17.487 11.1413 17.5106 11.2046 17.5538C11.2679 17.597 11.3171 17.658 11.346 17.729L11.347 17.732C11.9783 17.586 12.5419 17.2312 12.9465 16.7251C13.351 16.2189 13.5728 15.591 13.576 14.943C13.576 14.943 13.541 12.876 13.523 12.862C13.4634 12.6687 13.4225 12.4701 13.401 12.269L13.4 12.254C13.365 11.89 13.342 11.525 13.309 11.154C13.556 10.708 13.815 10.162 14.043 9.59898L14.081 9.49298C14.286 8.98398 14.445 8.49898 14.584 8.03598C14.6251 8.06515 14.6729 8.08339 14.723 8.08898H14.724L14.865 8.10098C15.035 8.11898 15.185 7.97898 15.199 7.76198L15.351 5.83098V5.82898C15.3509 5.75128 15.3225 5.67626 15.2712 5.61793C15.2199 5.5596 15.1491 5.52194 15.072 5.51198H15.053C15.1862 4.50647 15.1037 3.48413 14.811 2.51298L14.824 2.56398C14.5419 1.9377 14.113 1.38871 13.5735 0.963584C13.034 0.538462 12.3999 0.249762 11.725 0.121981L11.699 0.117981C11.3718 0.0523795 11.0396 0.0149094 10.706 0.00598145H10.685C10.336 0.0122306 9.98846 0.0517427 9.647 0.123981L9.683 0.117981C9.00848 0.243182 8.37377 0.52814 7.83199 0.949001C7.29021 1.36986 6.85713 1.91438 6.569 2.53698L6.558 2.56398C6.27009 3.53139 6.19336 4.54935 6.333 5.54898L6.329 5.51198C6.25173 5.52034 6.18025 5.55689 6.12823 5.61463C6.0762 5.67237 6.04728 5.74726 6.047 5.82498V5.83198L6.199 7.76298C6.213 7.98498 6.365 8.11898 6.529 8.10098L6.53 8.09798Z" fill="#0086FF"/>
<path d="M21.416 20.878C21.346 17.838 21.042 17.15 20.878 16.684C20.813 16.497 20.76 15.233 18.672 14.413C17.392 13.909 15.74 13.899 14.342 13.308V14.952C14.3405 15.7948 14.046 16.6109 13.5089 17.2604C12.9718 17.9099 12.2255 18.3524 11.398 18.512L11.375 18.516C11.36 18.6047 11.3143 18.6853 11.246 18.7438C11.1776 18.8023 11.0909 18.8349 11.001 18.836H10.983V20.076C10.983 20.6579 11.2141 21.216 11.6256 21.6274C12.037 22.0389 12.5951 22.27 13.177 22.27C13.7589 22.27 14.3169 22.0389 14.7284 21.6274C15.1398 21.216 15.371 20.6579 15.371 20.076V19.21C15.069 19.1657 14.7937 19.0123 14.5971 18.7787C14.4006 18.5452 14.2965 18.2477 14.3045 17.9426C14.3125 17.6374 14.432 17.3458 14.6405 17.1228C14.8489 16.8999 15.1319 16.7611 15.4358 16.7326C15.7397 16.7042 16.0435 16.7882 16.2897 16.9686C16.5359 17.149 16.7075 17.4134 16.7719 17.7118C16.8364 18.0101 16.7892 18.3218 16.6394 18.5877C16.4896 18.8537 16.2475 19.0555 15.959 19.155L15.95 19.158V20.123C15.95 20.8587 15.6577 21.5643 15.1375 22.0845C14.6173 22.6048 13.9117 22.897 13.176 22.897C12.4403 22.897 11.7347 22.6048 11.2145 22.0845C10.6942 21.5643 10.402 20.8587 10.402 20.123V20.073V20.075V18.824C10.3163 18.8182 10.2352 18.7836 10.1717 18.7259C10.1081 18.6682 10.066 18.5907 10.052 18.506V18.504C9.22351 18.346 8.47577 17.9049 7.93685 17.2561C7.39793 16.6074 7.10137 15.7914 7.09797 14.948V13.291C5.69397 13.894 4.03197 13.906 2.74497 14.411C0.650968 15.23 0.602969 16.491 0.538969 16.681C0.378969 17.149 0.0709685 17.834 0.00096852 20.876C-0.0110315 21.276 0.000968575 21.889 1.20697 22.425C3.83297 23.455 7.21597 23.775 10.551 24.005H10.871C14.213 23.777 17.591 23.458 20.215 22.425C21.416 21.892 21.427 21.282 21.416 20.878ZM6.73497 19.638H5.48897V20.889H4.59897V19.642H3.35297V18.752H4.59897V17.506H5.48897V18.752H6.73497V19.638Z" fill="#0086FF"/>
<path d="M16.225 17.965C16.2249 17.7866 16.1539 17.6145 16.0276 17.4884C15.9014 17.3622 15.7302 17.2914 15.5518 17.2915C15.3733 17.2916 15.2022 17.3625 15.0761 17.4887C14.9499 17.6149 14.879 17.7861 14.879 17.9645C14.879 18.143 14.9499 18.3141 15.0761 18.4403C15.2022 18.5665 15.3733 18.6374 15.5518 18.6375C15.7302 18.6376 15.9014 18.5668 16.0276 18.4407C16.1539 18.3145 16.2249 18.1435 16.225 17.965Z" fill="#0086FF"/>
</g>
<defs>
<clipPath id="clip0_585_11966">
<rect width="21" height="24" fill="white"/>
</clipPath>
</defs>
</svg>
