<svg width="15" height="15" viewBox="0 0 15 15" fill="none" xmlns="http://www.w3.org/2000/svg">
<path d="M7.5 7.74138C6.78225 7.74138 6.08061 7.52903 5.48382 7.13118C4.88703 6.73334 4.42188 6.16786 4.14721 5.50627C3.87254 4.84467 3.80067 4.11667 3.9407 3.41433C4.08073 2.71198 4.42636 2.06684 4.93389 1.56048C5.44142 1.05411 6.08805 0.709277 6.79201 0.569572C7.49597 0.429867 8.22565 0.501569 8.88877 0.77561C9.55189 1.04965 10.1187 1.51372 10.5174 2.10914C10.9162 2.70456 11.129 3.40459 11.129 4.12069C11.129 5.08096 10.7467 6.00189 10.0661 6.6809C9.38554 7.35992 8.46248 7.74138 7.5 7.74138ZM7.5 1.94828C7.06935 1.94828 6.64836 2.07569 6.29029 2.31439C5.93222 2.5531 5.65313 2.89239 5.48833 3.28934C5.32352 3.6863 5.2804 4.1231 5.36442 4.54451C5.44844 4.96591 5.65581 5.353 5.96033 5.65682C6.26485 5.96064 6.65283 6.16754 7.07521 6.25136C7.49758 6.33519 7.93539 6.29216 8.33326 6.12774C8.73113 5.96331 9.0712 5.68487 9.31046 5.32762C9.54972 4.97037 9.67742 4.55035 9.67742 4.12069C9.67742 3.54453 9.44801 2.99197 9.03967 2.58456C8.63132 2.17716 8.07749 1.94828 7.5 1.94828ZM14.2742 14.5C14.0825 14.4975 13.8993 14.4204 13.7637 14.2851C13.6282 14.1499 13.5509 13.9671 13.5484 13.7759C13.5484 11.8931 12.5226 10.6379 7.5 10.6379C2.47742 10.6379 1.45161 11.8931 1.45161 13.7759C1.45161 13.9679 1.37514 14.1521 1.23903 14.2879C1.10291 14.4237 0.918302 14.5 0.725806 14.5C0.533311 14.5 0.348699 14.4237 0.212584 14.2879C0.0764686 14.1521 0 13.9679 0 13.7759C0 9.18966 5.25484 9.18966 7.5 9.18966C9.74516 9.18966 15 9.18966 15 13.7759C14.9975 13.9671 14.9202 14.1499 14.7846 14.2851C14.6491 14.4204 14.4659 14.4975 14.2742 14.5Z" fill="#7A7A7A"/>
</svg>
