<svg width="17" height="20" viewBox="0 0 17 20" fill="none" xmlns="http://www.w3.org/2000/svg">
<path d="M14.545 2.8H12.223V1.45C12.223 1.33065 12.1822 1.21619 12.1097 1.1318C12.0371 1.04741 11.9386 1 11.836 1C11.7334 1 11.6349 1.04741 11.5623 1.1318C11.4898 1.21619 11.449 1.33065 11.449 1.45V2.8H6.031V1.45C6.031 1.33065 5.99023 1.21619 5.91765 1.1318C5.84507 1.04741 5.74664 1 5.644 1C5.54136 1 5.44293 1.04741 5.37035 1.1318C5.29777 1.21619 5.257 1.33065 5.257 1.45V2.8H2.935C2.42199 2.80071 1.93018 3.038 1.56743 3.4598C1.20468 3.8816 1.00061 4.45348 1 5.05V16.75C1.00061 17.3465 1.20468 17.9184 1.56743 18.3402C1.93018 18.762 2.42199 18.9993 2.935 19H14.545C15.0581 18.9995 15.55 18.7623 15.9128 18.3405C16.2756 17.9186 16.4796 17.3466 16.48 16.75V5.05C16.4796 4.45341 16.2756 3.88139 15.9128 3.45954C15.55 3.03768 15.0581 2.80048 14.545 2.8ZM15.706 16.75C15.706 17.108 15.5837 17.4514 15.366 17.7046C15.1482 17.9578 14.8529 18.1 14.545 18.1H2.935C2.62708 18.1 2.33178 17.9578 2.11405 17.7046C1.89632 17.4514 1.774 17.108 1.774 16.75V9.1H15.706V16.75ZM15.706 8.2H1.774V5.05C1.774 4.3048 2.29258 3.7 2.935 3.7H5.257V5.05C5.257 5.16935 5.29777 5.28381 5.37035 5.3682C5.44293 5.45259 5.54136 5.5 5.644 5.5C5.74664 5.5 5.84507 5.45259 5.91765 5.3682C5.99023 5.28381 6.031 5.16935 6.031 5.05V3.7H11.449V5.05C11.449 5.16935 11.4898 5.28381 11.5623 5.3682C11.6349 5.45259 11.7334 5.5 11.836 5.5C11.9386 5.5 12.0371 5.45259 12.1097 5.3682C12.1822 5.28381 12.223 5.16935 12.223 5.05V3.7H14.545C14.8529 3.7 15.1482 3.84223 15.366 4.09541C15.5837 4.34858 15.706 4.69196 15.706 5.05V8.2Z" fill="#3D3D3D" stroke="#7A7A7A" stroke-width="0.5"/>
</svg>
