<svg width="15" height="15" viewBox="0 0 15 15" fill="none" xmlns="http://www.w3.org/2000/svg">
<path d="M2.86176 0.80717L3.93875 0.566368C4.94674 0.340965 6.02473 0.705669 6.45673 1.41828L7.31672 2.83789C7.69171 3.456 7.48372 4.18331 6.80272 4.63552L4.90974 5.89413C5.02674 6.64734 5.38774 7.38865 5.99373 8.11806C6.56955 8.82379 7.34178 9.44148 8.26471 9.93458L10.5407 9.40257C11.4027 9.20167 12.3417 9.43337 12.8707 9.97728L14.1026 11.2443C14.7186 11.8771 14.6076 12.7493 13.8446 13.2855L13.0267 13.8602C12.2127 14.4321 11.0507 14.64 9.97469 14.4048C7.43572 13.8504 5.10174 12.2047 2.97176 9.46767C0.838785 6.72644 0.0867929 4.39961 0.713786 2.48999C0.977783 1.68638 1.79577 1.04587 2.86376 0.80717H2.86176Z" fill="white"/>
</svg>
