<svg width="18" height="19" viewBox="0 0 18 19" fill="none" xmlns="http://www.w3.org/2000/svg">
<path opacity="0.2" d="M17.3314 4.49951L16.3182 10.0706C16.2624 10.3778 16.1005 10.6556 15.8609 10.8557C15.6212 11.0558 15.3189 11.1654 15.0067 11.1655H4.54534L3.33298 4.49951H17.3314Z" fill="white"/>
<path d="M17.843 4.07213C17.7804 3.99725 17.7022 3.93702 17.6138 3.8957C17.5254 3.85438 17.429 3.83297 17.3314 3.83299H3.88957L3.48211 1.59489C3.4263 1.2877 3.26445 1.00984 3.02478 0.809753C2.7851 0.609666 2.48281 0.500045 2.17059 0.5H0.666593C0.489801 0.5 0.320251 0.570231 0.19524 0.695242C0.0702301 0.820253 0 0.989805 0 1.1666C0 1.34339 0.0702301 1.51294 0.19524 1.63795C0.320251 1.76296 0.489801 1.83319 0.666593 1.83319H2.16643L4.29619 13.5228C4.35893 13.8695 4.51213 14.1934 4.74031 14.4619C4.42538 14.756 4.19808 15.1317 4.08359 15.5471C3.96911 15.9626 3.97193 16.4016 4.09174 16.8155C4.21154 17.2295 4.44365 17.6022 4.76233 17.8922C5.081 18.1823 5.47379 18.3785 5.89714 18.459C6.32049 18.5394 6.75786 18.5011 7.16075 18.3482C7.56363 18.1952 7.91629 17.9337 8.17963 17.5926C8.44296 17.2515 8.60667 16.8441 8.65261 16.4156C8.69855 15.9872 8.62493 15.5543 8.4399 15.1651H12.2245C12.0753 15.4773 11.9982 15.819 11.9987 16.165C11.9987 16.6265 12.1355 17.0776 12.3919 17.4612C12.6482 17.8449 13.0126 18.1439 13.4389 18.3205C13.8652 18.4971 14.3343 18.5433 14.7869 18.4533C15.2395 18.3633 15.6552 18.1411 15.9815 17.8148C16.3078 17.4885 16.53 17.0728 16.62 16.6202C16.71 16.1676 16.6638 15.6985 16.4872 15.2722C16.3106 14.8459 16.0116 14.4815 15.6279 14.2251C15.2443 13.9688 14.7932 13.8319 14.3317 13.8319H6.26347C6.10736 13.8319 5.95622 13.7771 5.83638 13.6771C5.71654 13.577 5.63561 13.4381 5.60771 13.2845L5.34357 11.8322H15.0092C15.4775 11.8321 15.9309 11.6677 16.2904 11.3675C16.65 11.0674 16.8927 10.6506 16.9764 10.1898L17.9897 4.61874C18.0068 4.52245 18.0026 4.42356 17.9772 4.3291C17.9519 4.23463 17.9061 4.1469 17.843 4.07213ZM7.33252 16.165C7.33252 16.3628 7.27388 16.5561 7.16401 16.7205C7.05414 16.885 6.89798 17.0131 6.71527 17.0888C6.53256 17.1645 6.33152 17.1843 6.13756 17.1457C5.9436 17.1071 5.76544 17.0119 5.6256 16.8721C5.48576 16.7322 5.39053 16.5541 5.35195 16.3601C5.31337 16.1661 5.33317 15.9651 5.40885 15.7824C5.48453 15.5997 5.61269 15.4435 5.77712 15.3337C5.94155 15.2238 6.13487 15.1651 6.33263 15.1651C6.59782 15.1651 6.85214 15.2705 7.03966 15.458C7.22717 15.6455 7.33252 15.8998 7.33252 16.165ZM15.3316 16.165C15.3316 16.3628 15.273 16.5561 15.1631 16.7205C15.0532 16.885 14.8971 17.0131 14.7144 17.0888C14.5317 17.1645 14.3306 17.1843 14.1367 17.1457C13.9427 17.1071 13.7646 17.0119 13.6247 16.8721C13.4849 16.7322 13.3896 16.5541 13.3511 16.3601C13.3125 16.1661 13.3323 15.9651 13.408 15.7824C13.4836 15.5997 13.6118 15.4435 13.7762 15.3337C13.9407 15.2238 14.134 15.1651 14.3317 15.1651C14.5969 15.1651 14.8513 15.2705 15.0388 15.458C15.2263 15.6455 15.3316 15.8998 15.3316 16.165ZM15.6649 9.95151C15.6369 10.1055 15.5557 10.2448 15.4353 10.3449C15.3149 10.445 15.1632 10.4995 15.0067 10.499H5.1011L4.13204 5.16618H16.5323L15.6649 9.95151Z" fill="white"/>
</svg>
