<svg width="16" height="15" viewBox="0 0 16 15" fill="none" xmlns="http://www.w3.org/2000/svg">
<path d="M1.05486 6.44395L1.05476 6.44384L1.05151 6.44711C0.882829 6.61672 0.882829 6.87451 1.05151 7.04412C1.21959 7.21311 1.47498 7.21394 1.64391 7.04662L2.35578 6.45016V14.1491C2.35578 14.2713 2.3966 14.379 2.47357 14.4564C2.55057 14.5338 2.65789 14.575 2.77975 14.575H13.2489C13.3707 14.575 13.478 14.5338 13.555 14.4564C13.632 14.379 13.6728 14.2713 13.6728 14.1491V6.45016L14.3847 7.04666C14.4758 7.13645 14.5717 7.13642 14.6418 7.1364L14.6447 7.1364C14.6979 7.1364 14.7634 7.11201 14.818 7.08455C14.8714 7.05771 14.9272 7.02143 14.9688 6.98199C15.0752 6.92042 15.086 6.79032 15.0673 6.69589C15.0478 6.5981 14.9894 6.48944 14.8973 6.43801L8.27517 0.550678C8.1068 0.383108 7.85201 0.383107 7.68365 0.550678L1.05486 6.44395ZM7.59033 7.48246V8.46009H6.61842C6.49656 8.46009 6.38924 8.50127 6.31224 8.57869C6.23527 8.65608 6.19445 8.76378 6.19445 8.88596C6.19445 9.00815 6.23527 9.11585 6.31224 9.19324C6.38924 9.27066 6.49656 9.31184 6.61842 9.31184H7.59033V10.2895C7.59033 10.4117 7.63116 10.5194 7.70812 10.5967C7.78512 10.6742 7.89244 10.7154 8.0143 10.7154C8.13616 10.7154 8.24348 10.6742 8.32048 10.5967C8.39745 10.5194 8.43827 10.4117 8.43827 10.2895V9.31184H9.41018C9.53204 9.31184 9.63936 9.27066 9.71636 9.19324C9.79333 9.11585 9.83415 9.00815 9.83415 8.88596C9.83415 8.76378 9.79333 8.65608 9.71636 8.57869C9.63936 8.50127 9.53204 8.46009 9.41018 8.46009H8.43827V7.48246C8.43827 7.36027 8.39745 7.25257 8.32048 7.17518C8.24348 7.09776 8.13616 7.05658 8.0143 7.05658C7.89244 7.05658 7.78512 7.09776 7.70812 7.17518C7.63116 7.25257 7.59033 7.36027 7.59033 7.48246ZM3.20372 13.7232V5.69153L8.0143 1.40745L12.8249 5.69153V13.7232H3.20372Z" fill="#7A7A7A" stroke="#7A7A7A" stroke-width="0.15"/>
</svg>
