<svg width="16" height="16" viewBox="0 0 16 16" fill="none" xmlns="http://www.w3.org/2000/svg">
<path d="M1.00484 6.88769L1.00503 6.8879L7.6323 0.995976C7.82942 0.801341 8.12939 0.801342 8.32652 0.995977L14.9413 6.87684C15.0545 6.94387 15.1193 7.07296 15.1408 7.18126C15.1612 7.28364 15.1557 7.4551 15.014 7.54241C14.9665 7.58588 14.9069 7.62382 14.8517 7.65156C14.7948 7.68017 14.7162 7.7114 14.6447 7.7114L14.64 7.71141C14.5683 7.71146 14.4468 7.71156 14.3343 7.60228L13.7478 7.11085V14.6491C13.7478 14.7882 13.7011 14.9159 13.6082 15.0093C13.5153 15.1027 13.3879 15.15 13.2489 15.15H2.77975C2.64072 15.15 2.51333 15.1027 2.42039 15.0093C2.32753 14.9159 2.28078 14.7882 2.28078 14.6491V7.11085L1.69439 7.60218C1.49606 7.79631 1.19484 7.79458 0.998336 7.59701M1.00484 6.88769L1.10442 7.4915L0.998336 7.59701M1.00484 6.88769L0.998336 6.89422M1.00484 6.88769L0.998336 6.89422M0.998336 7.59701L0.998336 7.597M0.998336 7.59701L0.998336 7.597M0.998336 6.89422C0.800555 7.09309 0.800555 7.39814 0.998336 7.597M0.998336 6.89422V7.597M7.51533 7.98246V8.88509H6.61842C6.4794 8.88509 6.352 8.93236 6.25906 9.0258C6.1662 9.11917 6.11945 9.24686 6.11945 9.38597C6.11945 9.52507 6.1662 9.65276 6.25906 9.74613C6.352 9.83957 6.4794 9.88684 6.61842 9.88684H7.51533V10.7895C7.51533 10.9286 7.56208 11.0563 7.65494 11.1496C7.74788 11.2431 7.87528 11.2904 8.0143 11.2904C8.15333 11.2904 8.28073 11.2431 8.37366 11.1496C8.46652 11.0563 8.51327 10.9286 8.51327 10.7895V9.88684H9.41018C9.54921 9.88684 9.67661 9.83957 9.76954 9.74613C9.8624 9.65276 9.90915 9.52507 9.90915 9.38597C9.90915 9.24686 9.8624 9.11917 9.76954 9.0258C9.67661 8.93236 9.54921 8.88509 9.41018 8.88509H8.51327V7.98246C8.51327 7.84335 8.46652 7.71566 8.37366 7.62229C8.28073 7.52885 8.15333 7.48158 8.0143 7.48158C7.87528 7.48158 7.74788 7.52885 7.65494 7.62229C7.56208 7.71566 7.51533 7.84335 7.51533 7.98246ZM3.27872 14.1482V6.22517L8.0143 2.00788L12.7499 6.22517V14.1482H3.27872Z" fill="#7A7A7A" stroke="#7A7A7A" stroke-width="0.3"/>
</svg>
