<svg width="19" height="20" viewBox="0 0 19 20" fill="none" xmlns="http://www.w3.org/2000/svg">
<path fill-rule="evenodd" clip-rule="evenodd" d="M9.49902 1C9.66556 1 9.82526 1.06615 9.94302 1.18391C10.0608 1.30167 10.1269 1.46138 10.1269 1.62791V10.8146L11.5334 9.17284C11.5871 9.11017 11.6526 9.05868 11.7261 9.02132C11.7997 8.98395 11.8799 8.96144 11.9621 8.95506C12.0444 8.94869 12.1271 8.95858 12.2055 8.98416C12.2839 9.00975 12.3565 9.05053 12.4192 9.10419C12.4819 9.15784 12.5334 9.22331 12.5707 9.29686C12.6081 9.37041 12.6306 9.4506 12.637 9.53285C12.6434 9.6151 12.6335 9.6978 12.6079 9.77623C12.5823 9.85466 12.5415 9.92729 12.4879 9.98995L9.97623 12.9202C9.91728 12.9891 9.8441 13.0445 9.76172 13.0824C9.67935 13.1204 9.58972 13.14 9.49902 13.14C9.40832 13.14 9.3187 13.1204 9.23632 13.0824C9.15394 13.0445 9.08076 12.9891 9.02181 12.9202L6.51019 9.98995C6.45653 9.92729 6.41575 9.85466 6.39016 9.77623C6.36458 9.6978 6.35469 9.6151 6.36106 9.53285C6.36744 9.4506 6.38995 9.37041 6.42732 9.29686C6.46468 9.22331 6.51617 9.15784 6.57884 9.10419C6.64151 9.05053 6.71413 9.00975 6.79256 8.98416C6.87099 8.95858 6.95369 8.94869 7.03594 8.95506C7.11819 8.96144 7.19838 8.98395 7.27193 9.02132C7.34548 9.05868 7.41095 9.11017 7.4646 9.17284L8.87112 10.8138V1.62791C8.87112 1.46138 8.93727 1.30167 9.05503 1.18391C9.17278 1.06615 9.33249 1 9.49902 1ZM5.30963 6.86214C5.47616 6.86125 5.63622 6.92655 5.75461 7.04368C5.87299 7.16081 5.94 7.32017 5.94088 7.4867C5.94177 7.65323 5.87647 7.81329 5.75934 7.93168C5.64221 8.05006 5.48286 8.11707 5.31633 8.11795C4.40126 8.12298 3.75242 8.14642 3.2593 8.23684C2.78544 8.32474 2.51 8.46456 2.30656 8.668C2.07465 8.89991 1.92395 9.22558 1.84107 9.84009C1.75651 10.4722 1.75484 11.3102 1.75484 12.5116V13.3488C1.75484 14.5511 1.75651 15.3891 1.84107 16.0212C1.92395 16.6357 2.07549 16.9606 2.30656 17.1933C2.53847 17.4244 2.8633 17.5751 3.47865 17.658C4.10991 17.7433 4.94879 17.7442 6.15019 17.7442H12.8479C14.0493 17.7442 14.8873 17.7433 15.5202 17.658C16.1347 17.5751 16.4596 17.4244 16.6915 17.1925C16.9234 16.9606 17.0741 16.6357 17.157 16.0212C17.2415 15.3891 17.2432 14.5511 17.2432 13.3488V12.5116C17.2432 11.3102 17.2415 10.4722 17.157 9.83926C17.0741 9.22558 16.9226 8.89991 16.6915 8.668C16.4872 8.46456 16.2126 8.32474 15.7387 8.23684C15.2456 8.14642 14.5968 8.12298 13.6817 8.11795C13.5993 8.11751 13.5177 8.10084 13.4417 8.06887C13.3657 8.03691 13.2967 7.99029 13.2387 7.93168C13.1807 7.87306 13.1348 7.80359 13.1037 7.72724C13.0725 7.65089 13.0567 7.56916 13.0572 7.4867C13.0576 7.40424 13.0743 7.32268 13.1062 7.24666C13.1382 7.17065 13.1848 7.10168 13.2434 7.04368C13.3021 6.98569 13.3715 6.9398 13.4479 6.90865C13.5242 6.87751 13.606 6.8617 13.6884 6.86214C14.5943 6.86716 15.3486 6.88893 15.9656 7.00195C16.6002 7.11916 17.1402 7.34102 17.5798 7.78056C18.0838 8.28372 18.2998 8.91916 18.4019 9.67265C18.499 10.3977 18.499 11.3211 18.499 12.4656V13.3949C18.499 14.5402 18.499 15.4628 18.4019 16.1887C18.2998 16.9421 18.0838 17.5767 17.5798 18.0807C17.0758 18.5847 16.4412 18.8007 15.6877 18.9029C14.9618 19 14.0384 19 12.8939 19H6.10414C4.95967 19 4.03623 19 3.31037 18.9029C2.55688 18.8016 1.92228 18.5847 1.41828 18.0807C0.914279 17.5767 0.698279 16.9421 0.596977 16.1887C0.499023 15.4628 0.499023 14.5393 0.499023 13.3949V12.4656C0.499023 11.3211 0.499023 10.3977 0.596977 9.67181C0.697442 8.91833 0.915116 8.28372 1.41828 7.77972C1.85781 7.34102 2.39781 7.11833 3.03242 7.00195C3.64944 6.88893 4.40377 6.86716 5.30963 6.86214Z" fill="#0086FF" stroke="#0086FF" stroke-width="0.25"/>
</svg>
