<svg width="30" height="25" viewBox="0 0 30 25" fill="none" xmlns="http://www.w3.org/2000/svg">
<g clip-path="url(#clip0_915_8841)">
<path d="M10.3129 0.616641C10.1305 1.39036 10.0377 2.18078 10.0364 2.9742L10.0365 2.97716C10.0599 5.95709 11.3478 8.80185 13.6097 10.8887C15.8506 12.9562 18.8665 14.1136 22.0052 14.1189C22.0326 14.1265 22.061 14.1303 22.0899 14.1302C22.3751 14.1293 22.6602 14.1191 22.9447 14.0998C21.5255 18.395 17.1893 21.5431 12.0216 21.543L12.0201 21.5431C9.00367 21.558 6.10797 20.4539 3.96757 18.4791C1.82841 16.5055 0.618796 13.8244 0.596169 11.0255C0.611164 8.42693 1.65208 5.92111 3.52553 3.9894C5.299 2.16076 7.7005 0.968825 10.3129 0.616641Z" fill="#ADCCCC" stroke="#5E6A86" stroke-width="0.626895" stroke-linecap="round" stroke-linejoin="round"/>
</g>
<g clip-path="url(#clip1_915_8841)">
<path d="M26.0419 17.8218L25.8699 17.8333C25.9798 17.4277 26.0376 17.0112 26.0419 16.5928C26.04 15.4622 25.644 14.3629 24.9138 13.4614C24.1836 12.5598 23.159 11.905 21.9949 11.5961C20.8309 11.2872 19.5909 11.341 18.4625 11.7494C17.3341 12.1578 16.3788 12.8984 15.7412 13.8593C15.178 13.5432 14.5349 13.3729 13.878 13.3659C13.221 13.3589 12.574 13.5155 12.0032 13.8196C11.4325 14.1236 10.9587 14.5642 10.6305 15.096C10.3024 15.6278 10.1317 16.2317 10.136 16.8455C10.1362 17.034 10.1526 17.2222 10.1852 17.4083C9.21873 17.5847 8.35694 18.0905 7.76713 18.8273C7.17733 19.5641 6.90162 20.4794 6.99354 21.3955C7.08545 22.3116 7.53844 23.163 8.26453 23.7846C8.99062 24.4061 9.938 24.7534 10.9227 24.7589H26.0419C26.988 24.708 27.8773 24.3209 28.5278 23.6771C29.1783 23.0333 29.5406 22.1814 29.5406 21.2961C29.5406 20.4107 29.1783 19.5588 28.5278 18.915C27.8773 18.2712 26.988 17.8842 26.0419 17.8333V17.8218Z" fill="url(#paint0_linear_915_8841)" stroke="#5E6A86" stroke-width="0.55724" stroke-miterlimit="10"/>
</g>
<defs>
<linearGradient id="paint0_linear_915_8841" x1="13.3443" y1="13.1013" x2="21.3019" y2="27.8571" gradientUnits="userSpaceOnUse">
<stop stop-color="#F3F7FE"/>
<stop offset="0.5" stop-color="#F3F7FE"/>
<stop offset="1" stop-color="#DEEAFB"/>
</linearGradient>
<clipPath id="clip0_915_8841">
<rect width="23.6622" height="22.1092" fill="white"/>
</clipPath>
<clipPath id="clip1_915_8841">
<rect width="23.2934" height="13.8398" fill="white" transform="translate(6.70654 11.1604)"/>
</clipPath>
</defs>
</svg>
