<svg width="22" height="20" viewBox="0 0 22 20" fill="none" xmlns="http://www.w3.org/2000/svg">
<path d="M21 3.52492H7.25M4.75 3.52492H1M21 16.1495H7.25M4.75 16.1495H1M14.75 9.83721H1M21 9.83721H17.25M6 1C6.33152 1 6.64946 1.13301 6.88388 1.36977C7.1183 1.60652 7.25 1.92763 7.25 2.26246V4.78738C7.25 5.1222 7.1183 5.44331 6.88388 5.68007C6.64946 5.91682 6.33152 6.04983 6 6.04983C5.66848 6.04983 5.35054 5.91682 5.11612 5.68007C4.8817 5.44331 4.75 5.1222 4.75 4.78738V2.26246C4.75 1.92763 4.8817 1.60652 5.11612 1.36977C5.35054 1.13301 5.66848 1 6 1ZM6 13.6246C6.33152 13.6246 6.64946 13.7576 6.88388 13.9944C7.1183 14.2311 7.25 14.5522 7.25 14.887V17.412C7.25 17.7468 7.1183 18.0679 6.88388 18.3047C6.64946 18.5414 6.33152 18.6744 6 18.6744C5.66848 18.6744 5.35054 18.5414 5.11612 18.3047C4.8817 18.0679 4.75 17.7468 4.75 17.412V14.887C4.75 14.5522 4.8817 14.2311 5.11612 13.9944C5.35054 13.7576 5.66848 13.6246 6 13.6246ZM16 7.31229C16.3315 7.31229 16.6495 7.4453 16.8839 7.68206C17.1183 7.91881 17.25 8.23993 17.25 8.57475V11.0997C17.25 11.4345 17.1183 11.7556 16.8839 11.9924C16.6495 12.2291 16.3315 12.3621 16 12.3621C15.6685 12.3621 15.3505 12.2291 15.1161 11.9924C14.8817 11.7556 14.75 11.4345 14.75 11.0997V8.57475C14.75 8.23993 14.8817 7.91881 15.1161 7.68206C15.3505 7.4453 15.6685 7.31229 16 7.31229Z" stroke="#0086FF" stroke-width="1.62791" stroke-linecap="round" stroke-linejoin="round"/>
</svg>
