<svg width="22" height="22" viewBox="0 0 22 22" fill="none" xmlns="http://www.w3.org/2000/svg">
<path fill-rule="evenodd" clip-rule="evenodd" d="M19.8 4.58778V3.3C19.8 1.47746 18.3225 0 16.5 0H3.3C1.47746 0 0 1.47746 0 3.3V18.7C0 20.5225 1.47746 22 3.3 22H18.7C20.5225 22 22 20.5225 22 18.7V7.7C22 6.26316 21.0817 5.0408 19.8 4.58778ZM2.2 3.3C2.2 2.69249 2.69249 2.2 3.3 2.2H16.5C17.1075 2.2 17.6 2.69249 17.6 3.3V4.4H3.3C2.69249 4.4 2.2 3.90751 2.2 3.3ZM2.2 6.41222C2.54406 6.53383 2.9143 6.6 3.3 6.6H18.7C19.3075 6.6 19.8 7.09249 19.8 7.7V9.9H16.5C14.6775 9.9 13.2 11.3775 13.2 13.2C13.2 15.0225 14.6775 16.5 16.5 16.5H19.8V18.7C19.8 19.3075 19.3075 19.8 18.7 19.8H3.3C2.69249 19.8 2.2 19.3075 2.2 18.7V6.41222ZM16.5 12.1H19.8V14.3H16.5C15.8925 14.3 15.4 13.8075 15.4 13.2C15.4 12.5925 15.8925 12.1 16.5 12.1Z" fill="url(#paint0_linear_5845_2858)"/>
<defs>
<linearGradient id="paint0_linear_5845_2858" x1="0.293334" y1="0.439999" x2="22" y2="22" gradientUnits="userSpaceOnUse">
<stop stop-color="#FF00CC"/>
<stop offset="0.857292" stop-color="#333399"/>
</linearGradient>
</defs>
</svg>
