<svg width="22" height="22" viewBox="0 0 22 22" fill="none" xmlns="http://www.w3.org/2000/svg">
<path d="M10.945 17.6C11.33 17.6 11.6556 17.4669 11.9218 17.2007C12.188 16.9345 12.3207 16.6093 12.32 16.225C12.32 15.84 12.1873 15.5144 11.9218 15.2482C11.6563 14.982 11.3307 14.8493 10.945 14.85C10.56 14.85 10.2348 14.9831 9.9693 15.2493C9.70383 15.5155 9.57073 15.8407 9.57 16.225C9.57 16.61 9.7031 16.9356 9.9693 17.2018C10.2355 17.468 10.5607 17.6007 10.945 17.6ZM11 22C9.47833 22 8.04833 21.7111 6.71 21.1332C5.37167 20.5553 4.2075 19.7718 3.2175 18.7825C2.2275 17.7925 1.44393 16.6283 0.8668 15.29C0.289667 13.9517 0.000733333 12.5217 0 11C0 9.47833 0.288933 8.04833 0.8668 6.71C1.44467 5.37167 2.22823 4.2075 3.2175 3.2175C4.2075 2.2275 5.37167 1.44393 6.71 0.8668C8.04833 0.289667 9.47833 0.000733333 11 0C12.5217 0 13.9517 0.288933 15.29 0.8668C16.6283 1.44467 17.7925 2.22823 18.7825 3.2175C19.7725 4.2075 20.5564 5.37167 21.1343 6.71C21.7122 8.04833 22.0007 9.47833 22 11C22 12.5217 21.7111 13.9517 21.1332 15.29C20.5553 16.6283 19.7718 17.7925 18.7825 18.7825C17.7925 19.7725 16.6283 20.5564 15.29 21.1343C13.9517 21.7122 12.5217 22.0007 11 22ZM11.11 6.27C11.5683 6.27 11.9673 6.41667 12.3068 6.71C12.6463 7.00333 12.8157 7.37 12.815 7.81C12.815 8.21333 12.6914 8.57083 12.4443 8.8825C12.1972 9.19417 11.9174 9.4875 11.605 9.7625C11.1833 10.1292 10.8123 10.5325 10.4918 10.9725C10.1713 11.4125 10.0107 11.9075 10.01 12.4575C10.01 12.7142 10.1064 12.9298 10.2993 13.1043C10.4922 13.2788 10.7166 13.3657 10.9725 13.365C11.2475 13.365 11.4814 13.2733 11.6743 13.09C11.8672 12.9067 11.9907 12.6775 12.045 12.4025C12.1183 12.0175 12.2833 11.6736 12.54 11.3707C12.7967 11.0678 13.0717 10.7793 13.365 10.505C13.7867 10.1017 14.1489 9.66167 14.4518 9.185C14.7547 8.70833 14.9057 8.17667 14.905 7.59C14.905 6.655 14.5244 5.88977 13.7632 5.2943C13.002 4.69883 12.1176 4.40073 11.11 4.4C10.4133 4.4 9.74893 4.54667 9.1168 4.84C8.48467 5.13333 8.00323 5.5825 7.6725 6.1875C7.54417 6.4075 7.50273 6.64143 7.5482 6.8893C7.59367 7.13717 7.7176 7.3249 7.92 7.4525C8.17667 7.59917 8.4425 7.645 8.7175 7.59C8.9925 7.535 9.22167 7.37917 9.405 7.1225C9.60667 6.8475 9.85893 6.63667 10.1618 6.49C10.4647 6.34333 10.7807 6.27 11.11 6.27Z" fill="#0086FF"/>
</svg>
