<svg width="37" height="37" viewBox="0 0 37 37" fill="none" xmlns="http://www.w3.org/2000/svg">
<path d="M25.0462 14.9999C25.0462 16.7361 24.3565 18.4011 23.1289 19.6287C21.9012 20.8564 20.2362 21.546 18.5 21.546C16.7638 21.546 15.0988 20.8564 13.8711 19.6287C12.6435 18.4011 11.9538 16.7361 11.9538 14.9999C11.9538 13.2638 12.6435 11.5988 13.8711 10.3711C15.0988 9.14348 16.7638 8.45381 18.5 8.45381C20.2362 8.45381 21.9012 9.14348 23.1289 10.3711C24.3565 11.5988 25.0462 13.2638 25.0462 14.9999Z" fill="#7A7A7A" stroke="#7A7A7A" stroke-width="0.907611"/>
<path fill-rule="evenodd" clip-rule="evenodd" d="M17.786 35.9856C8.45238 35.6111 1 27.9252 1 18.4998C1 8.83466 8.83475 1 18.5 1C28.1652 1 36 8.83466 36 18.4998C36 28.1649 28.1652 35.9996 18.5 35.9996C18.4201 36.0001 18.3402 36.0001 18.2603 35.9996C18.1019 35.9996 17.9435 35.9944 17.786 35.9856ZM7.27025 29.5422C7.13941 29.1664 7.09487 28.766 7.13995 28.3707C7.18502 27.9754 7.31856 27.5953 7.53063 27.2587C7.74271 26.922 8.02788 26.6375 8.36498 26.4261C8.70209 26.2148 9.08246 26.0821 9.47787 26.0378C16.2994 25.2827 20.7426 25.351 27.5309 26.0536C27.9268 26.0948 28.3081 26.2259 28.6458 26.4367C28.9834 26.6476 29.2685 26.9328 29.4793 27.2705C29.6901 27.6081 29.821 27.9895 29.8621 28.3854C29.9033 28.7814 29.8535 29.1815 29.7166 29.5553C32.6259 26.6117 34.2552 22.6385 34.25 18.4998C34.25 9.80153 27.1984 2.74998 18.5 2.74998C9.80163 2.74998 2.75 9.80153 2.75 18.4998C2.75 22.8013 4.47463 26.7002 7.27025 29.5422Z" fill="#7A7A7A" stroke="#7A7A7A" stroke-width="0.631382"/>
</svg>
