<svg width="11" height="11" viewBox="0 0 11 11" fill="none" xmlns="http://www.w3.org/2000/svg">
<path d="M5.5 0C6.5878 0 7.65116 0.322569 8.55563 0.926917C9.4601 1.53126 10.1651 2.39025 10.5813 3.39524C10.9976 4.40023 11.1065 5.5061 10.8943 6.573C10.6821 7.63989 10.1583 8.6199 9.38909 9.38909C8.6199 10.1583 7.63989 10.6821 6.573 10.8943C5.5061 11.1065 4.40023 10.9976 3.39524 10.5813C2.39025 10.1651 1.53126 9.4601 0.926917 8.55563C0.322569 7.65116 0 6.5878 0 5.5C0.00153923 4.04178 0.581497 2.64373 1.61261 1.61261C2.64373 0.581497 4.04178 0.0015399 5.5 0ZM5.5 10.1538C6.42044 10.1538 7.32022 9.8809 8.08554 9.36953C8.85086 8.85816 9.44735 8.13133 9.79959 7.28095C10.1518 6.43057 10.244 5.49484 10.0644 4.59208C9.88485 3.68932 9.44162 2.86009 8.79076 2.20923C8.13991 1.55838 7.31068 1.11515 6.40792 0.935576C5.50516 0.756006 4.56943 0.848168 3.71905 1.20041C2.86867 1.55265 2.14184 2.14914 1.63047 2.91446C1.1191 3.67978 0.846153 4.57956 0.846153 5.5C0.847553 6.73385 1.33832 7.91676 2.21078 8.78922C3.08324 9.66168 4.26615 10.1524 5.5 10.1538ZM4.65384 8.03846C4.65384 8.15067 4.69842 8.25828 4.77776 8.33762C4.8571 8.41696 4.96472 8.46154 5.07692 8.46154C5.30134 8.46154 5.51656 8.37239 5.67524 8.2137C5.83393 8.05502 5.92308 7.8398 5.92308 7.61538V5.5C6.03528 5.5 6.14289 5.45542 6.22224 5.37608C6.30158 5.29674 6.34615 5.18913 6.34615 5.07692C6.34615 4.96472 6.30158 4.8571 6.22224 4.77776C6.14289 4.69842 6.03528 4.65385 5.92308 4.65385C5.69866 4.65385 5.48344 4.74299 5.32475 4.90168C5.16607 5.06036 5.07692 5.27559 5.07692 5.5V7.61538C4.96472 7.61538 4.8571 7.65996 4.77776 7.7393C4.69842 7.81864 4.65384 7.92625 4.65384 8.03846ZM6.34615 3.17308C6.34615 3.04756 6.30893 2.92487 6.2392 2.8205C6.16947 2.71614 6.07035 2.6348 5.95439 2.58677C5.83843 2.53874 5.71083 2.52617 5.58773 2.55065C5.46463 2.57514 5.35155 2.63558 5.2628 2.72434C5.17404 2.81309 5.1136 2.92617 5.08912 3.04927C5.06463 3.17237 5.0772 3.29997 5.12523 3.41593C5.17326 3.53189 5.2546 3.63101 5.35896 3.70074C5.46333 3.77047 5.58602 3.80769 5.71154 3.80769C5.87985 3.80769 6.04126 3.74083 6.16028 3.62182C6.27929 3.5028 6.34615 3.34139 6.34615 3.17308Z" fill="#7A7A7A"/>
</svg>
