<svg width="21" height="24" viewBox="0 0 21 24" fill="none" xmlns="http://www.w3.org/2000/svg">
<path d="M19.8867 20.6016C19.9961 20.7812 20.0781 20.9648 20.1328 21.1523C20.1875 21.3398 20.2148 21.5391 20.2148 21.75C20.2148 22.0625 20.1562 22.3555 20.0391 22.6289C19.9219 22.9023 19.7617 23.1406 19.5586 23.3438C19.3555 23.5469 19.1172 23.707 18.8438 23.8242C18.5703 23.9414 18.2773 24 17.9648 24H2.25C1.9375 24 1.64453 23.9414 1.37109 23.8242C1.09766 23.707 0.859375 23.5469 0.65625 23.3438C0.453125 23.1406 0.292969 22.9023 0.175781 22.6289C0.0585938 22.3555 0 22.0625 0 21.75C0 21.5391 0.0234375 21.3398 0.0703125 21.1523C0.117188 20.9648 0.199219 20.7812 0.316406 20.6016L6.98438 8.97656C7.0625 8.86719 7.10156 8.73438 7.10156 8.57812V1.5H5.60156V0H14.6016V1.5H13.1016V8.57812C13.1016 8.72656 13.1406 8.86328 13.2188 8.98828L19.8867 20.6016ZM8.60156 8.57812C8.60156 8.99219 8.49609 9.37891 8.28516 9.73828L4.40625 16.5H15.7969L11.918 9.73828C11.707 9.37891 11.6016 8.99219 11.6016 8.57812V1.5H8.60156V8.57812Z" fill="url(#paint0_linear_584_11850)"/>
<defs>
<linearGradient id="paint0_linear_584_11850" x1="0.269532" y1="0.479999" x2="23.5781" y2="19.9798" gradientUnits="userSpaceOnUse">
<stop stop-color="#FF00CC"/>
<stop offset="0.857292" stop-color="#333399"/>
</linearGradient>
</defs>
</svg>
