<svg width="24" height="20" viewBox="0 0 24 20" fill="none" xmlns="http://www.w3.org/2000/svg">
<path d="M23.3333 9C23.3333 8.46957 23.1098 7.96086 22.712 7.58579C22.3142 7.21071 21.7747 7 21.2121 7H14.5091L15.5273 2.43C15.5485 2.33 15.5591 2.22 15.5591 2.11C15.5591 1.7 15.3788 1.32 15.0924 1.05L13.9682 0L6.98939 6.58C6.59697 6.95 6.36364 7.45 6.36364 8V18C6.36364 18.5304 6.58712 19.0391 6.98493 19.4142C7.38273 19.7893 7.92227 20 8.48485 20H18.0303C18.9106 20 19.6636 19.5 19.9818 18.78L23.1849 11.73C23.2803 11.5 23.3333 11.26 23.3333 11V9ZM0 20H4.24242V8H0V20Z" fill="#25D366"/>
</svg>
