<svg width="18" height="24" viewBox="0 0 18 24" fill="none" xmlns="http://www.w3.org/2000/svg">
<path d="M9.00005 11.4189C8.22948 11.4189 7.49046 11.1128 6.94558 10.5679C6.4007 10.023 6.09459 9.28403 6.09459 8.51345C6.09459 7.74287 6.4007 7.00385 6.94558 6.45897C7.49046 5.91409 8.22948 5.60798 9.00005 5.60798C9.77063 5.60798 10.5096 5.91409 11.0545 6.45897C11.5994 7.00385 11.9055 7.74287 11.9055 8.51345C11.9055 8.895 11.8304 9.27282 11.6844 9.62532C11.5383 9.97783 11.3243 10.2981 11.0545 10.5679C10.7847 10.8377 10.4644 11.0517 10.1119 11.1978C9.75942 11.3438 9.3816 11.4189 9.00005 11.4189ZM9.00005 0.378143C6.84243 0.378143 4.77319 1.23525 3.24752 2.76092C1.72186 4.28658 0.864746 6.35583 0.864746 8.51345C0.864746 14.6149 9.00005 23.6219 9.00005 23.6219C9.00005 23.6219 17.1354 14.6149 17.1354 8.51345C17.1354 6.35583 16.2782 4.28658 14.7526 2.76092C13.2269 1.23525 11.1577 0.378143 9.00005 0.378143Z" fill="#0086FF"/>
</svg>
