<svg width="24" height="24" viewBox="0 0 24 24" fill="none" xmlns="http://www.w3.org/2000/svg">
<path fill-rule="evenodd" clip-rule="evenodd" d="M8 14.25C8 14.0511 8.08429 13.8603 8.23431 13.7197C8.38434 13.579 8.58783 13.5 8.8 13.5H16.8C17.0122 13.5 17.2157 13.579 17.3657 13.7197C17.5157 13.8603 17.6 14.0511 17.6 14.25C17.6 14.4489 17.5157 14.6397 17.3657 14.7803C17.2157 14.921 17.0122 15 16.8 15H8.8C8.58783 15 8.38434 14.921 8.23431 14.7803C8.08429 14.6397 8 14.4489 8 14.25ZM8 17.25C8 17.0511 8.08429 16.8603 8.23431 16.7197C8.38434 16.579 8.58783 16.5 8.8 16.5H16.8C17.0122 16.5 17.2157 16.579 17.3657 16.7197C17.5157 16.8603 17.6 17.0511 17.6 17.25C17.6 17.4489 17.5157 17.6397 17.3657 17.7803C17.2157 17.921 17.0122 18 16.8 18H8.8C8.58783 18 8.38434 17.921 8.23431 17.7803C8.08429 17.6397 8 17.4489 8 17.25Z" fill="url(#paint0_linear_584_11818)"/>
<path d="M4.79998 0H20.8C21.6487 0 22.4626 0.316071 23.0627 0.87868C23.6628 1.44129 24 2.20435 24 3V21C24 21.7956 23.6628 22.5587 23.0627 23.1213C22.4626 23.6839 21.6487 24 20.8 24H4.79998C3.95128 24 3.13735 23.6839 2.53723 23.1213C1.93712 22.5587 1.59998 21.7956 1.59998 21V19.5H3.19998V21C3.19998 21.3978 3.36855 21.7794 3.6686 22.0607C3.96866 22.342 4.37563 22.5 4.79998 22.5H20.8C21.2243 22.5 21.6313 22.342 21.9313 22.0607C22.2314 21.7794 22.4 21.3978 22.4 21V3C22.4 2.60218 22.2314 2.22064 21.9313 1.93934C21.6313 1.65804 21.2243 1.5 20.8 1.5H4.79998C4.37563 1.5 3.96866 1.65804 3.6686 1.93934C3.36855 2.22064 3.19998 2.60218 3.19998 3V4.5H1.59998V3C1.59998 2.20435 1.93712 1.44129 2.53723 0.87868C3.13735 0.316071 3.95128 0 4.79998 0Z" fill="url(#paint1_linear_584_11818)"/>
<path d="M1.6 7.5V6.75C1.6 6.55109 1.68429 6.36032 1.83431 6.21967C1.98434 6.07902 2.18783 6 2.4 6C2.61217 6 2.81566 6.07902 2.96569 6.21967C3.11571 6.36032 3.2 6.55109 3.2 6.75V7.5H4C4.21217 7.5 4.41566 7.57902 4.56568 7.71967C4.71571 7.86032 4.8 8.05109 4.8 8.25C4.8 8.44891 4.71571 8.63968 4.56568 8.78033C4.41566 8.92098 4.21217 9 4 9H0.8C0.587827 9 0.384344 8.92098 0.234315 8.78033C0.0842855 8.63968 0 8.44891 0 8.25C0 8.05109 0.0842855 7.86032 0.234315 7.71967C0.384344 7.57902 0.587827 7.5 0.8 7.5H1.6ZM1.6 12V11.25C1.6 11.0511 1.68429 10.8603 1.83431 10.7197C1.98434 10.579 2.18783 10.5 2.4 10.5C2.61217 10.5 2.81566 10.579 2.96569 10.7197C3.11571 10.8603 3.2 11.0511 3.2 11.25V12H4C4.21217 12 4.41566 12.079 4.56568 12.2197C4.71571 12.3603 4.8 12.5511 4.8 12.75C4.8 12.9489 4.71571 13.1397 4.56568 13.2803C4.41566 13.421 4.21217 13.5 4 13.5H0.8C0.587827 13.5 0.384344 13.421 0.234315 13.2803C0.0842855 13.1397 0 12.9489 0 12.75C0 12.5511 0.0842855 12.3603 0.234315 12.2197C0.384344 12.079 0.587827 12 0.8 12H1.6ZM1.6 16.5V15.75C1.6 15.5511 1.68429 15.3603 1.83431 15.2197C1.98434 15.079 2.18783 15 2.4 15C2.61217 15 2.81566 15.079 2.96569 15.2197C3.11571 15.3603 3.2 15.5511 3.2 15.75V16.5H4C4.21217 16.5 4.41566 16.579 4.56568 16.7197C4.71571 16.8603 4.8 17.0511 4.8 17.25C4.8 17.4489 4.71571 17.6397 4.56568 17.7803C4.41566 17.921 4.21217 18 4 18H0.8C0.587827 18 0.384344 17.921 0.234315 17.7803C0.0842855 17.6397 0 17.4489 0 17.25C0 17.0511 0.0842855 16.8603 0.234315 16.7197C0.384344 16.579 0.587827 16.5 0.8 16.5H1.6Z" fill="url(#paint2_linear_584_11818)"/>
<path d="M11.0725 5.6842C9.86857 5.6842 8.84216 6.58502 8.84216 7.75434C8.84216 8.56117 9.21981 9.24025 9.72045 9.80282C10.2198 10.3637 10.8638 10.8344 11.4454 11.2285L12.4497 11.9085C12.5035 11.9448 12.5668 11.9642 12.6316 11.9642C12.6965 11.9642 12.7598 11.9448 12.8135 11.9085L13.8179 11.2285C14.3999 10.8344 15.0435 10.3637 15.5424 9.80282C16.0435 9.24025 16.4211 8.56117 16.4211 7.75434C16.4211 6.58502 15.3947 5.6842 14.1907 5.6842C13.5697 5.6842 13.0236 5.97524 12.6316 6.35202C12.2397 5.97524 11.6931 5.6842 11.0725 5.6842Z" fill="url(#paint3_linear_584_11818)"/>
<defs>
<linearGradient id="paint0_linear_584_11818" x1="8.128" y1="13.59" x2="11.5555" y2="20.8526" gradientUnits="userSpaceOnUse">
<stop stop-color="#FF00CC"/>
<stop offset="0.857292" stop-color="#333399"/>
</linearGradient>
<linearGradient id="paint1_linear_584_11818" x1="1.89864" y1="0.479999" x2="25.5114" y2="22.3696" gradientUnits="userSpaceOnUse">
<stop stop-color="#FF00CC"/>
<stop offset="0.857292" stop-color="#333399"/>
</linearGradient>
<linearGradient id="paint2_linear_584_11818" x1="0.0640001" y1="6.24" x2="8.18963" y2="9.46829" gradientUnits="userSpaceOnUse">
<stop stop-color="#FF00CC"/>
<stop offset="0.857292" stop-color="#333399"/>
</linearGradient>
<linearGradient id="paint3_linear_584_11818" x1="8.94322" y1="5.8098" x2="15.0392" y2="13.117" gradientUnits="userSpaceOnUse">
<stop stop-color="#FF00CC"/>
<stop offset="0.857292" stop-color="#333399"/>
</linearGradient>
</defs>
</svg>
