<svg width="16" height="15" viewBox="0 0 16 15" fill="none" xmlns="http://www.w3.org/2000/svg">
<path d="M14.4 0H1.6C0.72 0 0 0.675 0 1.5V10.5C0 11.325 0.72 12 1.6 12H12.8L16 15V1.5C16 0.675 15.28 0 14.4 0ZM12 9.75H4C3.56 9.75 3.2 9.4125 3.2 9C3.2 8.5875 3.56 8.25 4 8.25H12C12.44 8.25 12.8 8.5875 12.8 9C12.8 9.4125 12.44 9.75 12 9.75ZM12 6.75H4C3.56 6.75 3.2 6.4125 3.2 6C3.2 5.5875 3.56 5.25 4 5.25H12C12.44 5.25 12.8 5.5875 12.8 6C12.8 6.4125 12.44 6.75 12 6.75ZM12 3.75H4C3.56 3.75 3.2 3.4125 3.2 3C3.2 2.5875 3.56 2.25 4 2.25H12C12.44 2.25 12.8 2.5875 12.8 3C12.8 3.4125 12.44 3.75 12 3.75Z" fill="#00CCCC"/>
</svg>
