<svg width="19" height="22" viewBox="0 0 19 22" fill="none" xmlns="http://www.w3.org/2000/svg">
<path d="M16.05 3H13.47V1.5C13.47 1.36739 13.4247 1.24021 13.3441 1.14645C13.2634 1.05268 13.154 1 13.04 1C12.926 1 12.8166 1.05268 12.7359 1.14645C12.6553 1.24021 12.61 1.36739 12.61 1.5V3H6.59V1.5C6.59 1.36739 6.5447 1.24021 6.46406 1.14645C6.38342 1.05268 6.27404 1 6.16 1C6.04596 1 5.93659 1.05268 5.85594 1.14645C5.7753 1.24021 5.73 1.36739 5.73 1.5V3H3.15C2.57999 3.00079 2.03353 3.26444 1.63047 3.73311C1.22742 4.20178 1.00068 4.8372 1 5.5V18.5C1.00068 19.1628 1.22742 19.7982 1.63047 20.2669C2.03353 20.7356 2.57999 20.9992 3.15 21H16.05C16.6201 20.9995 17.1667 20.7359 17.5698 20.2672C17.9729 19.7985 18.1995 19.1629 18.2 18.5V5.5C18.1995 4.83712 17.9729 4.20154 17.5698 3.73282C17.1667 3.26409 16.6201 3.00053 16.05 3ZM17.34 18.5C17.34 18.8978 17.2041 19.2794 16.9622 19.5607C16.7202 19.842 16.3921 20 16.05 20H3.15C2.80787 20 2.47975 19.842 2.23783 19.5607C1.99591 19.2794 1.86 18.8978 1.86 18.5V10H17.34V18.5ZM17.34 9H1.86V5.5C1.86 4.672 2.4362 4 3.15 4H5.73V5.5C5.73 5.63261 5.7753 5.75979 5.85594 5.85355C5.93659 5.94732 6.04596 6 6.16 6C6.27404 6 6.38342 5.94732 6.46406 5.85355C6.5447 5.75979 6.59 5.63261 6.59 5.5V4H12.61V5.5C12.61 5.63261 12.6553 5.75979 12.7359 5.85355C12.8166 5.94732 12.926 6 13.04 6C13.154 6 13.2634 5.94732 13.3441 5.85355C13.4247 5.75979 13.47 5.63261 13.47 5.5V4H16.05C16.3921 4 16.7202 4.15804 16.9622 4.43934C17.2041 4.72064 17.34 5.10218 17.34 5.5V9Z" fill="#3D3D3D" stroke="#3D3D3D" stroke-width="0.8"/>
</svg>
