<svg width="23" height="26" viewBox="0 0 23 26" fill="none" xmlns="http://www.w3.org/2000/svg">
<path fill-rule="evenodd" clip-rule="evenodd" d="M5.29474 2.8461C5.29474 2.35648 5.52098 1.88692 5.92369 1.54071C6.3264 1.1945 6.87259 1 7.4421 1H13.1684C13.7379 1 14.2841 1.1945 14.6868 1.54071C15.0895 1.88692 15.3158 2.35648 15.3158 2.8461H17.4632C18.0327 2.8461 18.5789 3.0406 18.9816 3.38681C19.3843 3.73302 19.6105 4.20258 19.6105 4.6922V13.9227H18.1789V4.6922C18.1789 4.52899 18.1035 4.37247 17.9693 4.25707C17.8351 4.14167 17.653 4.07683 17.4632 4.07683H15.3158C15.3158 4.56645 15.0895 5.03601 14.6868 5.38222C14.2841 5.72843 13.7379 5.92293 13.1684 5.92293H7.4421C6.87259 5.92293 6.3264 5.72843 5.92369 5.38222C5.52098 5.03601 5.29474 4.56645 5.29474 4.07683H3.14737C2.95753 4.07683 2.77547 4.14167 2.64123 4.25707C2.50699 4.37247 2.43158 4.52899 2.43158 4.6922V21.9225C2.43158 22.0857 2.50699 22.2422 2.64123 22.3576C2.77547 22.473 2.95753 22.5378 3.14737 22.5378H11.7368V23.7686H3.14737C2.57785 23.7686 2.03166 23.5741 1.62895 23.2278C1.22624 22.8816 1 22.4121 1 21.9225V4.6922C1 4.20258 1.22624 3.73302 1.62895 3.38681C2.03166 3.0406 2.57785 2.8461 3.14737 2.8461H5.29474ZM7.4421 2.23073C7.25227 2.23073 7.0702 2.29557 6.93596 2.41097C6.80173 2.52637 6.72632 2.68289 6.72632 2.8461V4.07683C6.72632 4.24004 6.80173 4.39656 6.93596 4.51196C7.0702 4.62737 7.25227 4.6922 7.4421 4.6922H13.1684C13.3583 4.6922 13.5403 4.62737 13.6746 4.51196C13.8088 4.39656 13.8842 4.24004 13.8842 4.07683V2.8461C13.8842 2.68289 13.8088 2.52637 13.6746 2.41097C13.5403 2.29557 13.3583 2.23073 13.1684 2.23073H7.4421ZM9.58947 10.2791V12.1252H7.4421V13.356H9.58947V15.2021H11.0211V13.356H13.1684V12.1252H11.0211V10.2791H9.58947ZM13.1684 15.1534C12.9786 15.1534 12.7965 15.2183 12.6623 15.3337C12.528 15.4491 12.4526 15.6056 12.4526 15.7688V19.9465C12.4527 20.6556 12.6563 21.3538 13.0455 21.9789C13.4347 22.6041 13.9975 23.1371 14.6837 23.5304L17.0659 24.8965C17.1835 24.964 17.3218 25 17.4632 25C17.6046 25 17.7428 24.964 17.8604 24.8965L20.2426 23.5304C20.9288 23.1371 21.4914 22.6043 21.8806 21.9792C22.2698 21.3541 22.4735 20.6561 22.4737 19.9471V15.7688C22.4737 15.6056 22.3983 15.4491 22.264 15.3337C22.1298 15.2183 21.9477 15.1534 21.7579 15.1534H13.1684ZM20.1166 18.6653L17.2534 21.1268C17.1192 21.2422 16.9372 21.307 16.7474 21.307C16.5576 21.307 16.3755 21.2422 16.2413 21.1268L14.8097 19.8961L15.8219 19.0259L16.7474 19.8216L19.1045 17.7952L20.1166 18.6653Z" fill="url(#paint0_linear_584_11806)" stroke="url(#paint1_linear_584_11806)" stroke-width="0.5"/>
<defs>
<linearGradient id="paint0_linear_584_11806" x1="1.28632" y1="1.48" x2="24.8029" y2="22.379" gradientUnits="userSpaceOnUse">
<stop stop-color="#FF00CC"/>
<stop offset="0.857292" stop-color="#333399"/>
</linearGradient>
<linearGradient id="paint1_linear_584_11806" x1="1.28632" y1="1.48" x2="24.8029" y2="22.379" gradientUnits="userSpaceOnUse">
<stop stop-color="#FF00CC"/>
<stop offset="0.857292" stop-color="#333399"/>
</linearGradient>
</defs>
</svg>
