<svg width="26" height="30" viewBox="0 0 26 30" fill="none" xmlns="http://www.w3.org/2000/svg">
<path fill-rule="evenodd" clip-rule="evenodd" d="M6.03496 3.12285C6.03496 2.55984 6.3002 2.01988 6.77232 1.62177C7.24444 1.22366 7.88477 1 8.55245 1H15.2657C15.9334 1 16.5737 1.22366 17.0459 1.62177C17.518 2.01988 17.7832 2.55984 17.7832 3.12285H20.3007C20.9684 3.12285 21.6087 3.34651 22.0808 3.74462C22.5529 4.14273 22.8182 4.68269 22.8182 5.2457V23.1219H21.1399V5.2457C21.1399 5.05803 21.0514 4.87804 20.8941 4.74534C20.7367 4.61264 20.5233 4.53808 20.3007 4.53808H17.7832C17.7832 5.1011 17.518 5.64105 17.0459 6.03917C16.5737 6.43728 15.9334 6.66093 15.2657 6.66093H8.55245C7.88477 6.66093 7.24444 6.43728 6.77232 6.03917C6.3002 5.64105 6.03496 5.1011 6.03496 4.53808H3.51748C3.29492 4.53808 3.08148 4.61264 2.92411 4.74534C2.76673 4.87804 2.67832 5.05803 2.67832 5.2457V25.059C2.67832 25.2466 2.76673 25.4266 2.92411 25.5593C3.08148 25.692 3.29492 25.7666 3.51748 25.7666H20.9918V27.1818H3.51748C2.8498 27.1818 2.20947 26.9582 1.73735 26.56C1.26523 26.1619 1 25.622 1 25.059V5.2457C1 4.68269 1.26523 4.14273 1.73735 3.74462C2.20947 3.34651 2.8498 3.12285 3.51748 3.12285H6.03496ZM8.55245 2.41523C8.32989 2.41523 8.11644 2.48979 7.95907 2.62249C7.8017 2.75519 7.71329 2.93518 7.71329 3.12285V4.53808C7.71329 4.72576 7.8017 4.90574 7.95907 5.03844C8.11644 5.17115 8.32989 5.2457 8.55245 5.2457H15.2657C15.4883 5.2457 15.7017 5.17115 15.8591 5.03844C16.0165 4.90574 16.1049 4.72576 16.1049 4.53808V3.12285C16.1049 2.93518 16.0165 2.75519 15.8591 2.62249C15.7017 2.48979 15.4883 2.41523 15.2657 2.41523H8.55245ZM11.0699 11.6702V13.793H8.55245V15.2083H11.0699V17.3311H12.7483V15.2083H15.2657V13.793H12.7483V11.6702H11.0699Z" fill="#3D3D3D" stroke="#3D3D3D" stroke-width="0.359886"/>
<ellipse cx="20.3004" cy="24.6364" rx="4.75492" ry="4.72727" fill="#DF3020" stroke="#3D3D3D" stroke-width="0.5"/>
</svg>
