<svg width="24" height="24" viewBox="0 0 24 24" fill="none" xmlns="http://www.w3.org/2000/svg">
<g clip-path="url(#clip0_584_11809)">
<path fill-rule="evenodd" clip-rule="evenodd" d="M7.33333 14.6753C7.66867 14.5987 8.66667 16 8.66667 16H15.3333C15.3333 16 16.3313 14.5987 16.6667 14.6753C20.2693 15.4953 24 17.8633 24 20.38V24H0V20.38C0 17.8633 3.73067 15.4953 7.33333 14.6753ZM17.3333 18.6667V17.3333H18.6667V18.6667H20V20H18.6667V21.3333H17.3333V20H16V18.6667H17.3333ZM12 12C13.4145 12 14.771 11.4381 15.7712 10.4379C16.7714 9.43771 17.3333 8.08115 17.3333 6.66667C17.3333 5.25218 16.7714 3.89562 15.7712 2.89543C14.771 1.89524 13.4145 1.33333 12 1.33333C10.5855 1.33333 9.22896 1.89524 8.22876 2.89543C7.22857 3.89562 6.66667 5.25218 6.66667 6.66667C6.66667 8.08115 7.22857 9.43771 8.22876 10.4379C9.22896 11.4381 10.5855 12 12 12ZM12 13.3333C15.682 13.3333 18.6667 10.3487 18.6667 6.66667C18.6667 2.98467 15.682 0 12 0C8.318 0 5.33333 2.98467 5.33333 6.66667C5.33333 10.3487 8.318 13.3333 12 13.3333Z" fill="url(#paint0_linear_584_11809)"/>
</g>
<defs>
<linearGradient id="paint0_linear_584_11809" x1="0.320001" y1="0.479999" x2="24" y2="24" gradientUnits="userSpaceOnUse">
<stop stop-color="#FF00CC"/>
<stop offset="0.857292" stop-color="#333399"/>
</linearGradient>
<clipPath id="clip0_584_11809">
<rect width="24" height="24" fill="white"/>
</clipPath>
</defs>
</svg>
