<svg width="20" height="20" viewBox="0 0 20 20" fill="none" xmlns="http://www.w3.org/2000/svg">
<path d="M6.14286 5H13.8571M6.14286 9H13.8571M6.14286 13H11.2857M1 3C1 2.46957 1.27092 1.96086 1.75315 1.58579C2.23539 1.21071 2.88944 1 3.57143 1H16.4286C17.1106 1 17.7646 1.21071 18.2468 1.58579C18.7291 1.96086 19 2.46957 19 3V17C19 17.5304 18.7291 18.0391 18.2468 18.4142C17.7646 18.7893 17.1106 19 16.4286 19H3.57143C2.88944 19 2.23539 18.7893 1.75315 18.4142C1.27092 18.0391 1 17.5304 1 17V3Z" stroke="#0086FF" stroke-width="1.5" stroke-linecap="round" stroke-linejoin="round"/>
</svg>
