<svg width="21" height="22" viewBox="0 0 21 22" fill="none" xmlns="http://www.w3.org/2000/svg">
<path d="M10.4227 8.00469C9.68754 8.00469 8.99907 8.28991 8.47779 8.81118C7.95898 9.33245 7.6713 10.0209 7.6713 10.7561C7.6713 11.4913 7.95898 12.1798 8.47779 12.701C8.99907 13.2198 9.68754 13.5075 10.4227 13.5075C11.1579 13.5075 11.8464 13.2198 12.3676 12.701C12.8865 12.1798 13.1741 11.4913 13.1741 10.7561C13.1741 10.0209 12.8865 9.33245 12.3676 8.81118C12.113 8.55462 11.81 8.35121 11.4761 8.21276C11.1422 8.07431 10.7842 8.00358 10.4227 8.00469ZM20.5604 13.7952L18.9524 12.4207C19.0286 11.9536 19.0679 11.4765 19.0679 11.002C19.0679 10.5274 19.0286 10.048 18.9524 9.58325L20.5604 8.20877C20.6819 8.10478 20.7689 7.96627 20.8097 7.81167C20.8506 7.65707 20.8434 7.49369 20.7891 7.34327L20.767 7.27934C20.3244 6.04179 19.6613 4.89466 18.8098 3.89354L18.7655 3.84191C18.6621 3.72032 18.5243 3.63292 18.3702 3.59122C18.2162 3.54953 18.0531 3.55549 17.9025 3.60832L15.9059 4.31892C15.1682 3.71405 14.347 3.23704 13.4569 2.9051L13.0709 0.817558C13.0417 0.660297 12.9655 0.515621 12.8522 0.402749C12.7388 0.289878 12.5939 0.214155 12.4365 0.185641L12.3701 0.173347C11.0915 -0.0577823 9.74409 -0.0577823 8.4655 0.173347L8.39911 0.185641C8.24174 0.214155 8.09677 0.289878 7.98346 0.402749C7.87015 0.515621 7.79386 0.660297 7.76474 0.817558L7.37624 2.91493C6.49458 3.24952 5.67325 3.72537 4.94447 4.32384L2.93315 3.60832C2.78259 3.55507 2.61939 3.54889 2.46523 3.59061C2.31107 3.63234 2.17326 3.71998 2.07011 3.84191L2.02585 3.89354C1.17582 4.89573 0.512867 6.04257 0.0686284 7.27934L0.046499 7.34327C-0.064148 7.65062 0.0268285 7.99485 0.275169 8.20877L1.90291 9.59801C1.82669 10.0603 1.7898 10.5324 1.7898 10.9995C1.7898 11.4716 1.82669 11.9437 1.90291 12.4011L0.280087 13.7903C0.158611 13.8943 0.0716685 14.0328 0.0308214 14.1874C-0.0100257 14.342 -0.0028423 14.5054 0.0514165 14.6558L0.0735459 14.7197C0.518592 15.9565 1.1751 17.0999 2.03077 18.1055L2.07503 18.1572C2.17843 18.2787 2.31625 18.3661 2.47031 18.4078C2.62438 18.4495 2.78746 18.4436 2.93807 18.3907L4.94939 17.6752C5.68212 18.2776 6.49844 18.7547 7.38116 19.0841L7.76965 21.1815C7.79878 21.3388 7.87507 21.4834 7.98838 21.5963C8.10169 21.7092 8.24666 21.7849 8.40403 21.8134L8.47042 21.8257C9.76158 22.0581 11.0839 22.0581 12.375 21.8257L12.4414 21.8134C12.5988 21.7849 12.7438 21.7092 12.8571 21.5963C12.9704 21.4834 13.0467 21.3388 13.0758 21.1815L13.4618 19.094C14.3519 18.7596 15.1732 18.285 15.9108 17.6801L17.9074 18.3907C18.0579 18.444 18.2211 18.4502 18.3753 18.4085C18.5295 18.3667 18.6673 18.2791 18.7704 18.1572L18.8147 18.1055C19.6703 17.0949 20.3269 15.9565 20.7719 14.7197L20.794 14.6558C20.8998 14.3509 20.8088 14.0091 20.5604 13.7952ZM10.4227 15.0787C8.03521 15.0787 6.10012 13.1436 6.10012 10.7561C6.10012 8.3686 8.03521 6.4335 10.4227 6.4335C12.8102 6.4335 14.7453 8.3686 14.7453 10.7561C14.7453 13.1436 12.8102 15.0787 10.4227 15.0787Z" fill="#0086FF"/>
</svg>
