<svg width="20" height="18" viewBox="0 0 20 18" fill="none" xmlns="http://www.w3.org/2000/svg">
<path d="M1.50649 4.57006L1.50713 4.5609C1.55511 3.86595 1.86506 3.2151 2.37436 2.73984C2.88364 2.26458 3.5543 2.00031 4.25088 2.0004C4.25091 2.0004 4.25093 2.0004 4.25096 2.0004H7.69765L7.76097 1.99606C7.81884 1.98513 7.87114 1.95407 7.90848 1.90818C7.94845 1.85904 7.96828 1.79657 7.96396 1.73338C7.95964 1.67019 7.9315 1.611 7.88522 1.56776C7.83898 1.52455 7.77807 1.5005 7.71479 1.50044L1.50649 4.57006ZM1.50649 4.57006L1.5062 4.57923M1.50649 4.57006L1.5062 4.57923M1.5062 4.57923L1.5012 4.73422L1.50094 4.74228M1.5062 4.57923L1.50094 4.74228M1.50094 4.74228V4.75034M1.50094 4.74228V4.75034M1.50094 4.75034V14.2501V14.2503M1.50094 4.75034V14.2503M1.50094 14.2503C1.50116 14.9469 1.76574 15.6174 2.24123 16.1265C2.71673 16.6355 3.3677 16.9452 4.06266 16.9929L4.07003 16.9934M1.50094 14.2503L4.07003 16.9934M4.07003 16.9934L4.07742 16.9937M4.07003 16.9934L4.07742 16.9937M4.07742 16.9937L4.23141 16.9997L4.24114 17M4.07742 16.9937L4.24114 17M4.24114 17H4.25088M4.24114 17H4.25088M4.25088 17H13.7503M4.25088 17L16.496 14.4293M16.496 14.4293L16.4954 14.4383C16.4477 15.1337 16.1377 15.785 15.6281 16.2606C15.1185 16.7361 14.4474 17.0004 13.7503 17M16.496 14.4293L16.4963 14.4203M16.496 14.4293L16.4963 14.4203M13.7503 17L13.7506 16.5V17H13.7503ZM16.4963 14.4203L16.5013 14.2663L16.5016 14.2582M16.4963 14.4203L16.5016 14.2582M16.5016 14.2582V14.2501M16.5016 14.2582V14.2501M16.5016 14.2501L16.5016 13.7523M16.5016 14.2501L16.5016 13.7523M4.25084 17.5H4.25088H13.7431L13.9296 17.4944C14.7584 17.449 15.5384 17.0881 16.1096 16.4858C16.6821 15.8822 17.0014 15.082 17.0015 14.2501C17.0015 14.2501 17.0015 14.25 17.0015 14.25V13.7693L16.9972 13.7059C16.9863 13.6481 16.9552 13.5958 16.9093 13.5584C16.8602 13.5185 16.7977 13.4986 16.7345 13.5029C16.6713 13.5073 16.6121 13.5354 16.5689 13.5817C16.5257 13.6279 16.5016 13.6888 16.5016 13.7521C16.5016 13.7522 16.5016 13.7522 16.5016 13.7523M4.25084 17.5L16.0016 13.7521L16.5016 13.7523M4.25084 17.5C3.41873 17.5001 2.61829 17.1809 2.01446 16.6084C1.41227 16.0374 1.05139 15.2577 1.00564 14.4293L1.00098 14.2428V4.74943C1.00098 4.7494 1.00098 4.74937 1.00098 4.74934C1.00115 3.91755 1.32024 3.11749 1.89256 2.51389C2.46334 1.91193 3.24263 1.55107 4.07072 1.5051L4.25713 1.50044M4.25084 17.5L4.25713 1.50044M12.5047 3.98961L12.0364 4.01937L11.7409 4.03815C9.46712 4.21499 7.70975 4.99904 6.43875 6.33628C5.16142 7.68016 4.3297 9.63084 4.00604 12.2202L3.5099 12.1582M12.5047 3.98961L18.9224 6.31916C19.012 6.40552 19.0234 6.54219 18.956 6.64063L18.9085 6.69374L12.9275 12.4323L12.9273 12.4325C12.8941 12.4644 12.8528 12.4865 12.8079 12.4964C12.763 12.5062 12.7162 12.5035 12.6727 12.4886C12.6292 12.4736 12.5907 12.4469 12.5614 12.4114C12.5351 12.3795 12.5171 12.3417 12.509 12.3013L12.5047 12.2348V9.52622V8.98058L11.9611 9.02812L11.6181 9.05812L11.6181 9.05805L11.6099 9.05891C9.08764 9.32164 6.69443 10.457 4.41849 12.4391L4.41844 12.4391C4.24501 12.5902 3.97764 12.4483 4.00607 12.2199L3.5099 12.1582M12.5047 3.98961V3.52038V0.750447V0.750136C12.5047 0.704154 12.5173 0.659056 12.5412 0.619802C12.5652 0.580548 12.5995 0.548658 12.6404 0.527641C12.6813 0.506625 12.7272 0.497294 12.7731 0.500678C12.8146 0.503745 12.8547 0.517151 12.8897 0.539587L12.9406 0.581815L18.9221 6.31888L12.5047 3.98961ZM3.5099 12.1582C4.17488 6.83829 6.95681 3.90737 11.7057 3.53937M3.5099 12.1582L11.7057 3.53937M11.7057 3.53937L12.0047 3.52038L11.7057 3.53937ZM13.0046 1.33581L13.8508 2.1476L18.0117 6.13949L18.3878 6.5003L18.0117 6.8611L13.8498 10.854L13.0036 11.6658V10.4932V8.76755L12.9993 8.70465C12.989 8.64941 12.9604 8.59909 12.9179 8.56197C12.8724 8.52222 12.8141 8.5003 12.7537 8.50026L13.0046 1.33581ZM13.0046 1.33581V2.5084V4.25036C13.0046 4.31666 12.9783 4.38024 12.9314 4.42712L13.285 4.78067L12.9314 4.42712C12.8845 4.474 12.821 4.50034 12.7547 4.50034C10.7478 4.50034 9.06952 4.93478 7.74807 5.8645C6.42287 6.79686 5.50778 8.1913 4.96466 10.0145L4.96464 10.0144L4.96335 10.0189L4.88335 10.2969L4.50416 11.6146L5.64256 10.8503L5.99295 10.6151M13.0046 1.33581L5.99295 10.6151M5.99295 10.6151C8.15488 9.20308 10.41 8.50028 12.7535 8.50026L5.99295 10.6151ZM4.25713 1.50044H7.71464H4.25713Z" fill="#0086FF" stroke="#0086FF"/>
</svg>
