<svg width="8" height="14" viewBox="0 0 8 14" fill="none" xmlns="http://www.w3.org/2000/svg">
<path d="M1.14872 12.4231L6.43557 6.99954L1.14872 1.57596C1.05407 1.47905 1.00109 1.34897 1.00109 1.21352C1.00109 1.07806 1.05407 0.947977 1.14872 0.851076C1.19469 0.804156 1.24957 0.766882 1.31012 0.741435C1.37068 0.715988 1.43571 0.702881 1.5014 0.702881C1.56708 0.702881 1.63211 0.715988 1.69267 0.741435C1.75323 0.766882 1.8081 0.804156 1.85407 0.851076L7.47949 6.62082C7.57825 6.72214 7.63353 6.85804 7.63353 6.99954C7.63353 7.14103 7.57825 7.27693 7.47949 7.37825L1.85516 13.148C1.80915 13.1952 1.75414 13.2328 1.69338 13.2584C1.63262 13.2841 1.56734 13.2973 1.5014 13.2973C1.43545 13.2973 1.37017 13.2841 1.30941 13.2584C1.24865 13.2328 1.19364 13.1952 1.14764 13.148C1.05299 13.0511 0.999999 12.921 0.999999 12.7856C0.999999 12.6501 1.05299 12.52 1.14764 12.4231L1.14872 12.4231Z" fill="#0086FF" stroke="#0086FF" stroke-width="0.5"/>
</svg>
