<svg width="16" height="16" viewBox="0 0 16 16" fill="none" xmlns="http://www.w3.org/2000/svg">
<path fill-rule="evenodd" clip-rule="evenodd" d="M0 8C0 3.5816 3.5816 0 8 0C12.4184 0 16 3.5816 16 8C16 12.4184 12.4184 16 8 16C3.5816 16 0 12.4184 0 8ZM8.8 4C8.8 3.78783 8.71571 3.58434 8.56569 3.43431C8.41566 3.28429 8.21217 3.2 8 3.2C7.78783 3.2 7.58434 3.28429 7.43431 3.43431C7.28429 3.58434 7.2 3.78783 7.2 4V7.0112C7.20002 7.45684 7.32411 7.89368 7.55837 8.27277C7.79264 8.65187 8.12783 8.95825 8.5264 9.1576L10.8424 10.3152C10.9367 10.3661 11.0403 10.3974 11.1469 10.4075C11.2536 10.4176 11.3612 10.4061 11.4633 10.3738C11.5655 10.3415 11.6601 10.289 11.7416 10.2195C11.8231 10.1499 11.8897 10.0647 11.9377 9.96883C11.9856 9.873 12.0137 9.76852 12.0205 9.6616C12.0273 9.55468 12.0125 9.44748 11.9771 9.34638C11.9416 9.24527 11.8862 9.15232 11.8142 9.07303C11.7421 8.99374 11.6549 8.92973 11.5576 8.8848L9.2424 7.7264C9.10954 7.66001 8.99778 7.55794 8.91964 7.43162C8.84151 7.3053 8.80008 7.15973 8.8 7.0112V4Z" fill="#00CCCC"/>
</svg>
