<svg width="26" height="26" viewBox="0 0 26 26" fill="none" xmlns="http://www.w3.org/2000/svg">
<path d="M0.552486 12.887C0.549877 15.0697 1.12276 17.2145 2.21337 19.1052L0.448242 25.5501L7.04393 23.8208C8.86816 24.8139 10.9121 25.3342 12.9891 25.3344H12.9946C19.8512 25.3344 25.433 19.7548 25.4359 12.8969C25.4372 9.57357 24.1441 6.44888 21.795 4.09779C19.4463 1.74692 16.3225 0.451665 12.9942 0.450348C6.13646 0.450348 0.555339 6.02927 0.552486 12.887Z" fill="url(#paint0_linear_904_10162)"/>
<path d="M0.108194 12.883C0.1055 15.1439 0.698891 17.3656 1.82855 19.324L0 26L6.83205 24.2085C8.72173 25.2376 10.8391 25.7768 12.9908 25.777H12.9963C20.0989 25.777 25.8808 19.9966 25.8841 12.8933C25.8852 9.45065 24.5456 6.2136 22.1127 3.77824C19.6793 1.34332 16.4438 0.00131677 12.9963 0C5.89231 0 0.111047 5.77929 0.108194 12.883ZM4.177 18.9876L3.92177 18.5827C2.84892 16.8757 2.28117 14.8998 2.28415 12.8837C2.28635 6.97952 7.09167 2.17618 13.0004 2.17618C15.8616 2.17727 18.5506 3.29258 20.5734 5.31645C22.5959 7.34054 23.7088 10.0309 23.7079 12.8925C23.7053 18.7968 18.9002 23.6011 12.996 23.6011H12.9921C11.0737 23.6012 9.19058 23.0856 7.53981 22.1083L7.14851 21.8761L3.0944 22.9392L4.17678 18.9876H4.177Z" fill="url(#paint1_linear_904_10162)"/>
<path d="M9.77498 7.49704C9.53357 6.96089 9.27988 6.95014 9.05054 6.9407C8.86268 6.93258 8.64783 6.93324 8.43341 6.93324C8.21834 6.93324 7.86962 7.014 7.57466 7.33617C7.27949 7.65834 6.44751 8.43721 6.44751 10.0217C6.44751 11.6062 7.60144 13.137 7.7623 13.352C7.92339 13.5667 9.99005 16.922 13.2631 18.2127C15.9835 19.2854 16.537 19.0721 17.1274 19.0183C17.7177 18.9648 19.0327 18.2397 19.3009 17.4876C19.5693 16.7357 19.5693 16.0911 19.4888 15.9566C19.4084 15.8225 19.1936 15.7418 18.8716 15.5809C18.5495 15.4198 16.9663 14.6407 16.6713 14.5332C16.3759 14.4259 16.1613 14.3723 15.9464 14.6947C15.7318 15.0167 15.1151 15.7418 14.9273 15.9566C14.7394 16.1717 14.5513 16.1987 14.2294 16.0378C13.9072 15.8761 12.87 15.5363 11.6397 14.4395C10.6825 13.5858 10.0361 12.5319 9.84828 12.2095C9.66042 11.8874 9.82831 11.7131 9.98961 11.5525C10.1345 11.4083 10.3118 11.1765 10.4729 10.9884C10.6335 10.8004 10.6873 10.6663 10.7946 10.4514C10.9021 10.2364 10.8481 10.0485 10.7678 9.88741C10.6873 9.72632 10.0614 8.13391 9.77498 7.49704Z" fill="white"/>
<defs>
<linearGradient id="paint0_linear_904_10162" x1="1249.83" y1="2510.43" x2="1249.83" y2="0.450348" gradientUnits="userSpaceOnUse">
<stop stop-color="#1FAF38"/>
<stop offset="1" stop-color="#60D669"/>
</linearGradient>
<linearGradient id="paint1_linear_904_10162" x1="1294.21" y1="2600" x2="1294.21" y2="0" gradientUnits="userSpaceOnUse">
<stop stop-color="#F9F9F9"/>
<stop offset="1" stop-color="white"/>
</linearGradient>
</defs>
</svg>
