<svg width="19" height="10" viewBox="0 0 19 10" fill="none" xmlns="http://www.w3.org/2000/svg">
<path d="M16.6339 8.82066L9.39926 2.44474L2.16462 8.82066C2.03536 8.9348 1.86184 8.99871 1.68115 8.99871C1.50046 8.99871 1.32694 8.9348 1.19768 8.82066C1.13509 8.76521 1.08537 8.69904 1.05143 8.62601C1.01748 8.55297 1 8.47455 1 8.39533C1 8.31611 1.01748 8.23769 1.05143 8.16466C1.08537 8.09163 1.13509 8.02545 1.19768 7.97001L8.89408 1.18578C9.02924 1.06668 9.21052 1.00002 9.39926 1.00002C9.588 1.00002 9.76928 1.06668 9.90444 1.18578L17.6008 7.9687C17.6639 8.02418 17.714 8.09052 17.7482 8.1638C17.7824 8.23707 17.8 8.3158 17.8 8.39533C17.8 8.47487 17.7824 8.5536 17.7482 8.62687C17.714 8.70015 17.6639 8.76648 17.6008 8.82197C17.4716 8.93611 17.2981 9.00002 17.1174 9.00002C16.9367 9.00002 16.7632 8.93611 16.6339 8.82197V8.82066Z" fill="#292929" stroke="#292929" stroke-width="0.5"/>
</svg>
