<svg width="319" height="119" viewBox="0 0 319 119" fill="none" xmlns="http://www.w3.org/2000/svg">
<path d="M106.559 81.714C107.06 81.8704 107.56 81.9798 108.06 82.0423C108.56 82.0736 109.06 82.0892 109.56 82.0892C110.811 82.0892 112.015 81.9172 113.171 81.5734C114.328 81.2295 115.406 80.7449 116.407 80.1197C117.438 79.4632 118.345 78.6816 119.127 77.775C119.939 76.8372 120.596 75.8055 121.096 74.6801L130.475 84.1056C129.287 85.7937 127.911 87.3099 126.348 88.6542C124.816 89.9985 123.144 91.1395 121.331 92.0774C119.549 93.0152 117.657 93.7186 115.657 94.1876C113.687 94.6878 111.655 94.9379 109.56 94.9379C106.028 94.9379 102.698 94.2814 99.5723 92.9684C96.4773 91.6554 93.7575 89.8265 91.4129 87.4819C89.0995 85.1372 87.2707 82.3549 85.9264 79.1349C84.5822 75.8837 83.91 72.3198 83.91 68.4433C83.91 64.4731 84.5822 60.8467 85.9264 57.5642C87.2707 54.2817 89.0995 51.4837 91.4129 49.1703C93.7575 46.8569 96.4773 45.0594 99.5723 43.7776C102.698 42.4959 106.028 41.855 109.56 41.855C111.655 41.855 113.703 42.1051 115.703 42.6053C117.704 43.1055 119.596 43.8245 121.378 44.7624C123.191 45.7002 124.879 46.8569 126.442 48.2325C128.005 49.5767 129.381 51.0929 130.569 52.7811L106.559 81.714ZM113.124 55.3133C112.53 55.0945 111.936 54.9538 111.342 54.8913C110.78 54.8287 110.186 54.7975 109.56 54.7975C107.81 54.7975 106.153 55.1257 104.59 55.7822C103.058 56.4075 101.714 57.3141 100.557 58.502C99.4316 59.69 98.5406 61.128 97.8841 62.8162C97.2276 64.4731 96.8994 66.3488 96.8994 68.4433C96.8994 68.9123 96.915 69.4437 96.9463 70.0377C97.0088 70.6317 97.0869 71.2413 97.1807 71.8665C97.3058 72.4605 97.4465 73.0388 97.6028 73.6016C97.7591 74.1643 97.9623 74.6645 98.2124 75.1021L113.124 55.3133ZM185.199 94H182.104L177.133 87.1067C175.914 88.2009 174.617 89.2325 173.241 90.2017C171.897 91.1395 170.474 91.968 168.974 92.687C167.473 93.3748 165.926 93.9218 164.331 94.3283C162.768 94.7347 161.174 94.9379 159.548 94.9379C156.016 94.9379 152.686 94.2814 149.56 92.9684C146.465 91.6241 143.745 89.7796 141.401 87.435C139.087 85.0591 137.259 82.2611 135.914 79.0411C134.57 75.7899 133.898 72.2573 133.898 68.4433C133.898 64.6606 134.57 61.1437 135.914 57.8924C137.259 54.6412 139.087 51.8276 141.401 49.4517C143.745 47.0758 146.465 45.2157 149.56 43.8714C152.686 42.5271 156.016 41.855 159.548 41.855C160.674 41.855 161.831 41.9488 163.018 42.1364C164.238 42.3239 165.41 42.6366 166.535 43.0742C167.692 43.4806 168.771 44.0277 169.771 44.7155C170.771 45.4033 171.616 46.2473 172.303 47.2477V23.8012H185.199V94ZM172.303 68.4433C172.303 66.6927 171.959 65.0045 171.272 63.3789C170.615 61.722 169.709 60.2683 168.552 59.0178C167.395 57.7361 166.035 56.7201 164.472 55.9698C162.94 55.1883 161.299 54.7975 159.548 54.7975C157.798 54.7975 156.141 55.1101 154.578 55.7353C153.046 56.3606 151.702 57.2672 150.545 58.4551C149.42 59.6118 148.529 61.0342 147.872 62.7224C147.216 64.4105 146.887 66.3175 146.887 68.4433C146.887 70.2878 147.216 72.0385 147.872 73.6953C148.529 75.3522 149.42 76.8059 150.545 78.0564C151.702 79.3069 153.046 80.2916 154.578 81.0106C156.141 81.7297 157.798 82.0892 159.548 82.0892C161.299 82.0892 162.94 81.714 164.472 80.9638C166.035 80.1822 167.395 79.1662 168.552 77.9157C169.709 76.634 170.615 75.1803 171.272 73.5547C171.959 71.8978 172.303 70.194 172.303 68.4433ZM210.099 30.1318C210.099 31.3197 209.865 32.4295 209.396 33.4612C208.958 34.4928 208.348 35.3994 207.567 36.181C206.785 36.9313 205.863 37.5409 204.8 38.0098C203.768 38.4475 202.659 38.6663 201.471 38.6663C200.283 38.6663 199.157 38.4475 198.094 38.0098C197.063 37.5409 196.156 36.9313 195.375 36.181C194.624 35.3994 194.015 34.4928 193.546 33.4612C193.108 32.4295 192.889 31.3197 192.889 30.1318C192.889 28.9751 193.108 27.8809 193.546 26.8493C194.015 25.7864 194.624 24.8798 195.375 24.1295C196.156 23.3479 197.063 22.7383 198.094 22.3006C199.157 21.8317 200.283 21.5973 201.471 21.5973C202.659 21.5973 203.768 21.8317 204.8 22.3006C205.863 22.7383 206.785 23.3479 207.567 24.1295C208.348 24.8798 208.958 25.7864 209.396 26.8493C209.865 27.8809 210.099 28.9751 210.099 30.1318ZM207.895 94H194.999V43.7776H207.895V94Z" fill="#00CCCC"/>
<path d="M261.587 53.7658L252.209 63.1913C251.74 61.8783 251.099 60.706 250.286 59.6743C249.473 58.6114 248.551 57.7205 247.52 57.0014C246.519 56.2824 245.425 55.7353 244.237 55.3602C243.049 54.985 241.83 54.7975 240.579 54.7975C238.829 54.7975 237.172 55.157 235.609 55.876C234.077 56.595 232.733 57.6111 231.576 58.9241C230.451 60.2058 229.56 61.7376 228.903 63.5196C228.247 65.3015 227.918 67.271 227.918 69.4281C227.918 71.1788 228.247 72.82 228.903 74.3518C229.56 75.8837 230.451 77.2279 231.576 78.3846C232.733 79.5413 234.077 80.4479 235.609 81.1044C237.172 81.7609 238.829 82.0892 240.579 82.0892C241.83 82.0892 243.034 81.9172 244.19 81.5734C245.347 81.2295 246.425 80.7449 247.426 80.1197C248.457 79.4632 249.364 78.6816 250.146 77.775C250.958 76.8372 251.615 75.8055 252.115 74.6801L261.494 84.1056C260.306 85.7937 258.93 87.3099 257.367 88.6542C255.835 89.9985 254.163 91.1395 252.35 92.0774C250.568 93.0152 248.676 93.7186 246.676 94.1876C244.706 94.6878 242.674 94.9379 240.579 94.9379C237.047 94.9379 233.717 94.2814 230.591 92.9684C227.496 91.6241 224.777 89.7953 222.432 87.4819C220.118 85.1685 218.29 82.4643 216.945 79.3694C215.601 76.2745 214.929 72.9607 214.929 69.4281C214.929 65.5829 215.601 61.9877 216.945 58.6427C218.29 55.2977 220.118 52.3903 222.432 49.9206C224.777 47.4196 227.496 45.4501 230.591 44.0121C233.717 42.574 237.047 41.855 240.579 41.855C242.674 41.855 244.722 42.1207 246.722 42.6522C248.754 43.1837 250.677 43.9652 252.49 44.9968C254.335 45.9972 256.023 47.2321 257.555 48.7014C259.118 50.1707 260.462 51.8589 261.587 53.7658ZM315.655 68.4433C315.655 72.1948 314.983 75.6961 313.639 78.9474C312.294 82.1673 310.466 84.9653 308.152 87.3412C305.839 89.6858 303.119 91.5459 299.993 92.9215C296.898 94.2657 293.568 94.9379 290.005 94.9379C286.472 94.9379 283.143 94.2657 280.016 92.9215C276.921 91.5459 274.202 89.6858 271.857 87.3412C269.544 84.9653 267.715 82.1673 266.371 78.9474C265.026 75.6961 264.354 72.1948 264.354 68.4433C264.354 64.6294 265.026 61.0968 266.371 57.8455C267.715 54.5943 269.544 51.7963 271.857 49.4517C274.202 47.0758 276.921 45.2157 280.016 43.8714C283.143 42.5271 286.472 41.855 290.005 41.855C293.568 41.855 296.898 42.4959 299.993 43.7776C303.119 45.0281 305.839 46.8257 308.152 49.1703C310.466 51.4837 312.294 54.2817 313.639 57.5642C314.983 60.8154 315.655 64.4418 315.655 68.4433ZM302.76 68.4433C302.76 66.38 302.416 64.52 301.728 62.8631C301.071 61.1749 300.165 59.7369 299.008 58.5489C297.851 57.3297 296.491 56.4075 294.928 55.7822C293.397 55.1257 291.755 54.7975 290.005 54.7975C288.254 54.7975 286.597 55.1257 285.034 55.7822C283.502 56.4075 282.158 57.3297 281.001 58.5489C279.876 59.7369 278.985 61.1749 278.328 62.8631C277.672 64.52 277.344 66.38 277.344 68.4433C277.344 70.3816 277.672 72.1791 278.328 73.836C278.985 75.4929 279.876 76.931 281.001 78.1502C282.158 79.3694 283.502 80.3385 285.034 81.0575C286.597 81.7453 288.254 82.0892 290.005 82.0892C291.755 82.0892 293.397 81.7609 294.928 81.1044C296.491 80.4479 297.851 79.5257 299.008 78.3377C300.165 77.1498 301.071 75.7117 301.728 74.0236C302.416 72.3354 302.76 70.4754 302.76 68.4433Z" fill="white"/>
<path fill-rule="evenodd" clip-rule="evenodd" d="M61.3652 95.1927H75.3755V45.0298C75.3755 42.1232 74.8204 39.3962 73.71 36.8489C72.6322 34.2689 71.13 32.0318 69.2031 30.1376C67.309 28.2108 65.0719 26.7085 62.4919 25.6308C59.9445 24.5204 57.2176 23.9652 54.311 23.9652C51.6983 23.9652 49.1837 24.4388 46.767 25.3859C44.3829 26.3003 42.2275 27.6393 40.3006 29.4028C38.3738 27.6393 36.202 26.3003 33.7853 25.3859C31.3686 24.4388 28.8539 23.9652 26.2413 23.9652C23.3347 23.9652 20.5914 24.5204 18.0114 25.6308C15.4641 26.7085 13.227 28.2108 11.3002 30.1376C9.40599 32.0318 7.90372 34.2689 6.79334 36.8489C5.71562 39.3962 5.17676 42.1232 5.17676 45.0298V95.1927H19.2361V45.0298C19.2361 44.05 19.4157 43.1356 19.775 42.2865C20.1342 41.4374 20.6241 40.7026 21.2446 40.0821C21.8978 39.4289 22.6489 38.9227 23.498 38.5634C24.3471 38.2042 25.2615 38.0246 26.2413 38.0246C27.221 38.0246 28.1355 38.2042 28.9846 38.5634C29.1835 38.6476 29.3761 38.7398 29.5625 38.8401L38.539 46.3765C39.4625 47.1518 40.8077 47.158 41.7383 46.3911L50.7178 38.9913C50.9892 38.831 51.2726 38.6883 51.5677 38.5634C52.4168 38.2042 53.3313 38.0246 54.311 38.0246C55.2907 38.0246 56.2052 38.2042 57.0543 38.5634C57.9034 38.9227 58.6382 39.4289 59.2587 40.0821C59.9119 40.7026 60.4181 41.4374 60.7773 42.2865C61.1692 43.1356 61.3652 44.05 61.3652 45.0298V95.1927Z" fill="#00CCCC"/>
<path d="M32.1871 75.0287V95.2865H46.2465V75.8044L41.3123 80.3542C40.3518 81.2398 38.8715 81.2372 37.9142 80.348L32.1871 75.0287Z" fill="#00CCCC"/>
<path d="M3 58.8325C1.75688 58.8325 0.749137 59.8402 0.749137 61.0834C0.749137 62.3265 1.75688 63.3342 3 63.3342V58.8325ZM21.2101 61.0834V63.3342C21.8491 63.3342 22.458 63.0626 22.8849 62.5872L21.2101 61.0834ZM28.6965 52.7455L30.5443 51.4602C30.1515 50.8956 29.5223 50.5416 28.8358 50.499C28.1494 50.4564 27.4812 50.73 27.0217 51.2418L28.6965 52.7455ZM39.5161 68.2987L37.6684 69.5841C38.0773 70.172 38.7416 70.5301 39.4575 70.5488C40.1733 70.5675 40.8554 70.2444 41.2944 69.6786L39.5161 68.2987ZM47.1264 58.4917V56.2409C46.4309 56.2409 45.7745 56.5624 45.3481 57.1118L47.1264 58.4917ZM59.1267 60.7426H61.3775V56.2409H59.1267V60.7426ZM3 63.3342H21.2101V58.8325H3V63.3342ZM22.8849 62.5872L30.3714 54.2493L27.0217 51.2418L19.5353 59.5796L22.8849 62.5872ZM26.8488 54.0309L37.6684 69.5841L41.3639 67.0133L30.5443 51.4602L26.8488 54.0309ZM41.2944 69.6786L48.9046 59.8717L45.3481 57.1118L37.7379 66.9188L41.2944 69.6786ZM47.1264 60.7426H59.1267V56.2409H47.1264V60.7426Z" fill="white"/>
</svg>
