<svg width="76" height="73" viewBox="0 0 76 73" fill="none" xmlns="http://www.w3.org/2000/svg">
<path fill-rule="evenodd" clip-rule="evenodd" d="M61.3652 72.1927H75.3755V22.0298C75.3755 19.1232 74.8204 16.3962 73.71 13.8489C72.6322 11.2689 71.13 9.03181 69.2031 7.13764C67.309 5.2108 65.0719 3.70853 62.4919 2.63081C59.9445 1.52043 57.2176 0.96524 54.311 0.96524C51.6983 0.96524 49.1837 1.43878 46.767 2.38587C44.3829 3.3003 42.2275 4.63929 40.3006 6.40283C38.3738 4.63929 36.202 3.3003 33.7853 2.38587C31.3686 1.43878 28.8539 0.96524 26.2413 0.96524C23.3347 0.96524 20.5914 1.52043 18.0114 2.63081C15.4641 3.70853 13.227 5.2108 11.3002 7.13764C9.40599 9.03181 7.90372 11.2689 6.79334 13.8489C5.71562 16.3962 5.17676 19.1232 5.17676 22.0298V72.1927H19.2361V22.0298C19.2361 21.05 19.4157 20.1356 19.775 19.2865C20.1342 18.4374 20.6241 17.7026 21.2446 17.0821C21.8978 16.4289 22.6489 15.9227 23.498 15.5634C24.3471 15.2042 25.2615 15.0246 26.2413 15.0246C27.221 15.0246 28.1355 15.2042 28.9846 15.5634C29.1835 15.6476 29.3761 15.7398 29.5625 15.8401L38.539 23.3765C39.4625 24.1518 40.8077 24.158 41.7383 23.3911L50.7178 15.9913C50.9892 15.831 51.2726 15.6883 51.5677 15.5634C52.4168 15.2042 53.3313 15.0246 54.311 15.0246C55.2907 15.0246 56.2052 15.2042 57.0543 15.5634C57.9034 15.9227 58.6382 16.4289 59.2587 17.0821C59.9119 17.7026 60.4181 18.4374 60.7773 19.2865C61.1692 20.1356 61.3652 21.05 61.3652 22.0298V72.1927Z" fill="#00CCCC"/>
<path d="M32.1871 52.0287V72.2865H46.2465V52.8044L41.3123 57.3542C40.3518 58.2398 38.8715 58.2372 37.9142 57.348L32.1871 52.0287Z" fill="#00CCCC"/>
<path d="M3 35.8325C1.75688 35.8325 0.749137 36.8402 0.749137 38.0834C0.749137 39.3265 1.75688 40.3342 3 40.3342V35.8325ZM21.2101 38.0834V40.3342C21.8491 40.3342 22.458 40.0626 22.8849 39.5872L21.2101 38.0834ZM28.6965 29.7455L30.5443 28.4602C30.1515 27.8956 29.5223 27.5416 28.8358 27.499C28.1494 27.4564 27.4812 27.73 27.0217 28.2418L28.6965 29.7455ZM39.5161 45.2987L37.6684 46.5841C38.0773 47.172 38.7416 47.5301 39.4575 47.5488C40.1733 47.5675 40.8554 47.2444 41.2944 46.6786L39.5161 45.2987ZM47.1264 35.4917V33.2409C46.4309 33.2409 45.7745 33.5624 45.3481 34.1118L47.1264 35.4917ZM59.1267 37.7426H61.3775V33.2409H59.1267V37.7426ZM3 40.3342H21.2101V35.8325H3V40.3342ZM22.8849 39.5872L30.3714 31.2493L27.0217 28.2418L19.5353 36.5796L22.8849 39.5872ZM26.8488 31.0309L37.6684 46.5841L41.3639 44.0133L30.5443 28.4602L26.8488 31.0309ZM41.2944 46.6786L48.9046 36.8717L45.3481 34.1118L37.7379 43.9188L41.2944 46.6786ZM47.1264 37.7426H59.1267V33.2409H47.1264V37.7426Z" fill="white"/>
</svg>
