<svg width="15" height="21" viewBox="0 0 15 21" fill="none" xmlns="http://www.w3.org/2000/svg">
<path d="M7.5 10.2759C6.84275 10.2759 6.21241 10.0148 5.74766 9.55006C5.28291 9.08531 5.02181 8.45497 5.02181 7.79772C5.02181 7.14046 5.28291 6.51012 5.74766 6.04537C6.21241 5.58062 6.84275 5.31953 7.5 5.31953C8.15726 5.31953 8.7876 5.58062 9.25235 6.04537C9.7171 6.51012 9.9782 7.14046 9.9782 7.79772C9.9782 8.12316 9.91409 8.44541 9.78955 8.74608C9.66501 9.04675 9.48247 9.31994 9.25235 9.55006C9.02223 9.78018 8.74903 9.96273 8.44837 10.0873C8.1477 10.2118 7.82544 10.2759 7.5 10.2759ZM7.5 0.85878C5.65968 0.85878 3.89474 1.58984 2.59343 2.89115C1.29213 4.19245 0.561066 5.9574 0.561066 7.79772C0.561066 13.0019 7.5 20.6843 7.5 20.6843C7.5 20.6843 14.4389 13.0019 14.4389 7.79772C14.4389 5.9574 13.7079 4.19245 12.4066 2.89115C11.1053 1.58984 9.34032 0.85878 7.5 0.85878Z" fill="#0086FF"/>
</svg>
